<?xml version="1.0" encoding="UTF-8"?><svg xmlns="http://www.w3.org/2000/svg" xmlns:xlink="http://www.w3.org/1999/xlink" contentScriptType="application/ecmascript" contentStyleType="text/css" height="469px" preserveAspectRatio="none" style="width:1671px;height:469px;" version="1.1" viewBox="0 0 1671 469" width="1671px" zoomAndPan="magnify">
    <defs>
        <filter height="300%" id="f16wv5v7mziegk" width="300%" x="-1" y="-1">
            <feGaussianBlur result="blurOut" stdDeviation="2.0"/>
            <feColorMatrix in="blurOut" result="blurOut2" type="matrix" values="0 0 0 0 0 0 0 0 0 0 0 0 0 0 0 0 0 0 .4 0"/>
            <feOffset dx="4.0" dy="4.0" in="blurOut2" result="blurOut3"/>
            <feBlend in="SourceGraphic" in2="blurOut3" mode="normal"/>
        </filter>
    </defs>
    <g>
        <!--MD5=[5d4cd377749310b66bf14896f5cd8d9b]
cluster model-->
        <polygon fill="#FFFFFF" filter="url(#f16wv5v7mziegk)" points="608.19,114,657.19,114,664.19,137.6094,1237.19,137.6094,1237.19,338,608.19,338,608.19,114" style="stroke:#000000;stroke-width:1.5;"/>
        <line style="stroke:#000000;stroke-width:1.5;" x1="608.19" x2="664.19" y1="137.6094" y2="137.6094"/>
        <text fill="#000000" font-family="sans-serif" font-size="14" font-weight="bold" lengthAdjust="spacing" textLength="43" x="612.19" y="130.5332">model</text>
        <!--MD5=[aa8f7b917213fcc1c2766e2d59b49067]
cluster java.lang-->
        <polygon fill="#FFFFFF" filter="url(#f16wv5v7mziegk)" points="1544.19,238,1613.19,238,1620.19,261.6094,1654.19,261.6094,1654.19,338,1544.19,338,1544.19,238" style="stroke:#000000;stroke-width:1.5;"/>
        <line style="stroke:#000000;stroke-width:1.5;" x1="1544.19" x2="1620.19" y1="261.6094" y2="261.6094"/>
        <text fill="#000000" font-family="sans-serif" font-size="14" font-weight="bold" lengthAdjust="spacing" textLength="63" x="1548.19" y="254.5332">java.lang</text>
        <!--MD5=[c4061de2b4ca09897990802c4ef9a5be]
cluster java.sql-->
        <polygon fill="#FFFFFF" filter="url(#f16wv5v7mziegk)" points="269.19,362,329.19,362,336.19,385.6094,984.19,385.6094,984.19,462,269.19,462,269.19,362" style="stroke:#000000;stroke-width:1.5;"/>
        <line style="stroke:#000000;stroke-width:1.5;" x1="269.19" x2="336.19" y1="385.6094" y2="385.6094"/>
        <text fill="#000000" font-family="sans-serif" font-size="14" font-weight="bold" lengthAdjust="spacing" textLength="54" x="273.19" y="378.5332">java.sql</text>
        <!--MD5=[7db3c59d38ae5b37b484eb2df9368145]
cluster java.util-->
        <polygon fill="#FFFFFF" filter="url(#f16wv5v7mziegk)" points="1238.19,362,1299.19,362,1306.19,385.6094,1350.19,385.6094,1350.19,462,1238.19,462,1238.19,362" style="stroke:#000000;stroke-width:1.5;"/>
        <line style="stroke:#000000;stroke-width:1.5;" x1="1238.19" x2="1306.19" y1="385.6094" y2="385.6094"/>
        <text fill="#000000" font-family="sans-serif" font-size="14" font-weight="bold" lengthAdjust="spacing" textLength="55" x="1242.19" y="378.5332">java.util</text>
        <!--MD5=[8db7a6831e1582aab7f84135deae219c]
cluster java.util.logging-->
        <polygon fill="#FFFFFF" filter="url(#f16wv5v7mziegk)" points="1311.19,114,1429.19,114,1436.19,137.6094,1511.19,137.6094,1511.19,214,1311.19,214,1311.19,114" style="stroke:#000000;stroke-width:1.5;"/>
        <line style="stroke:#000000;stroke-width:1.5;" x1="1311.19" x2="1436.19" y1="137.6094" y2="137.6094"/>
        <text fill="#000000" font-family="sans-serif" font-size="14" font-weight="bold" lengthAdjust="spacing" textLength="112" x="1315.19" y="130.5332">java.util.logging</text>
        <!--MD5=[952907595508a01e4ebe4bfcad2b26ed]
cluster model.another-->
        <polygon fill="#FFFFFF" filter="url(#f16wv5v7mziegk)" points="307.19,6,415.19,6,422.19,29.6094,584.19,29.6094,584.19,214,307.19,214,307.19,6" style="stroke:#000000;stroke-width:1.5;"/>
        <line style="stroke:#000000;stroke-width:1.5;" x1="307.19" x2="422.19" y1="29.6094" y2="29.6094"/>
        <text fill="#000000" font-family="sans-serif" font-size="14" font-weight="bold" lengthAdjust="spacing" textLength="102" x="311.19" y="22.5332">model.another</text>
        <!--MD5=[a25253d93e3a5fc8ed71fb50252c8caf]
class model.DBModel-->
        <rect codeLine="1" fill="#FEFECE" filter="url(#f16wv5v7mziegk)" height="48" id="model.DBModel" style="stroke:#A80036;stroke-width:1.5;" width="82" x="995.19" y="274"/>
        <ellipse cx="1010.19" cy="290" fill="#A9DCDF" rx="11" ry="11" style="stroke:#A80036;stroke-width:1.0;"/>
        <path d="M1012.3775,291.7656 L1008.2369,291.7656 L1007.815,292.7969 L1008.2369,292.7969 Q1008.8462,292.7969 1009.1119,293.0313 Q1009.3775,293.2656 1009.3775,293.6563 Q1009.3775,294.0313 1009.1119,294.2656 Q1008.8462,294.5 1008.2369,294.5 L1005.94,294.5 Q1005.3306,294.5 1005.0806,294.2656 Q1004.815,294.0313 1004.815,293.6406 Q1004.815,293.2656 1005.0962,293.0313 Q1005.3619,292.7813 1005.9869,292.7969 L1008.6587,286.1406 L1007.5494,286.1406 Q1006.94,286.1406 1006.6744,285.9063 Q1006.4087,285.6719 1006.4087,285.2813 Q1006.4087,284.9063 1006.6744,284.6719 Q1006.94,284.4375 1007.5494,284.4375 L1011.2212,284.4375 L1014.6119,292.7969 Q1015.2056,292.7969 1015.3931,292.9375 Q1015.7837,293.2031 1015.7837,293.6563 Q1015.7837,294.0313 1015.5181,294.2656 Q1015.2681,294.5 1014.6587,294.5 L1012.3619,294.5 Q1011.7525,294.5 1011.4869,294.2656 Q1011.2212,294.0313 1011.2212,293.6406 Q1011.2212,293.2656 1011.4869,293.0313 Q1011.7525,292.7969 1012.3619,292.7969 L1012.7837,292.7969 L1012.3775,291.7656 Z M1011.6587,290.0625 L1010.2994,286.6875 L1008.9244,290.0625 L1011.6587,290.0625 Z " fill="#000000"/>
        <text fill="#000000" font-family="sans-serif" font-size="12" font-style="italic" lengthAdjust="spacing" textLength="50" x="1024.19" y="294.9102">DBModel</text>
        <line style="stroke:#A80036;stroke-width:1.5;" x1="996.19" x2="1076.19" y1="306" y2="306"/>
        <line style="stroke:#A80036;stroke-width:1.5;" x1="996.19" x2="1076.19" y1="314" y2="314"/>
        <!--MD5=[48d73a968e31b84c5f365bff0606a491]
class model.Department-->
        <rect codeLine="11" fill="#FEFECE" filter="url(#f16wv5v7mziegk)" height="48" id="model.Department" style="stroke:#A80036;stroke-width:1.5;" width="97" x="862.69" y="150"/>
        <ellipse cx="877.69" cy="166" fill="#ADD1B2" rx="11" ry="11" style="stroke:#A80036;stroke-width:1.0;"/>
        <path d="M880.4556,161.875 Q880.6119,161.6563 880.7994,161.5469 Q880.9869,161.4375 881.2056,161.4375 Q881.5806,161.4375 881.815,161.7031 Q882.0494,161.9531 882.0494,162.5625 L882.0494,164.0156 Q882.0494,164.625 881.815,164.8906 Q881.5806,165.1563 881.2056,165.1563 Q880.8619,165.1563 880.6587,164.9531 Q880.4556,164.7656 880.3462,164.25 Q880.2994,163.8906 880.1119,163.7031 Q879.7837,163.3281 879.1744,163.1094 Q878.565,162.8906 877.94,162.8906 Q877.1744,162.8906 876.5337,163.2188 Q875.9087,163.5469 875.4087,164.2969 Q874.9244,165.0469 874.9244,166.0781 L874.9244,167.1719 Q874.9244,168.4063 875.815,169.2344 Q876.7056,170.0469 878.2994,170.0469 Q879.2369,170.0469 879.8931,169.7969 Q880.2837,169.6406 880.7056,169.2031 Q880.9712,168.9375 881.1119,168.8594 Q881.2681,168.7813 881.4712,168.7813 Q881.7994,168.7813 882.0494,169.0469 Q882.315,169.2969 882.315,169.6406 Q882.315,169.9844 881.9712,170.3906 Q881.4712,170.9688 880.6744,171.2969 Q879.5962,171.75 878.2994,171.75 Q876.7837,171.75 875.5806,171.125 Q874.5962,170.625 873.9087,169.5625 Q873.2212,168.4844 873.2212,167.2031 L873.2212,166.0469 Q873.2212,164.7188 873.8306,163.5781 Q874.4556,162.4219 875.5494,161.8125 Q876.6431,161.1875 877.8775,161.1875 Q878.6119,161.1875 879.2525,161.3594 Q879.9087,161.5156 880.4556,161.875 Z " fill="#000000"/>
        <text fill="#000000" font-family="sans-serif" font-size="12" lengthAdjust="spacing" textLength="65" x="891.69" y="170.9102">Department</text>
        <line style="stroke:#A80036;stroke-width:1.5;" x1="863.69" x2="958.69" y1="182" y2="182"/>
        <line style="stroke:#A80036;stroke-width:1.5;" x1="863.69" x2="958.69" y1="190" y2="190"/>
        <!--MD5=[19962f73b04a0525814e9bb2e46f3127]
class model.EmpProj-->
        <rect codeLine="12" fill="#FEFECE" filter="url(#f16wv5v7mziegk)" height="48" id="model.EmpProj" style="stroke:#A80036;stroke-width:1.5;" width="80" x="747.19" y="150"/>
        <ellipse cx="762.19" cy="166" fill="#ADD1B2" rx="11" ry="11" style="stroke:#A80036;stroke-width:1.0;"/>
        <path d="M764.9556,161.875 Q765.1119,161.6563 765.2994,161.5469 Q765.4869,161.4375 765.7056,161.4375 Q766.0806,161.4375 766.315,161.7031 Q766.5494,161.9531 766.5494,162.5625 L766.5494,164.0156 Q766.5494,164.625 766.315,164.8906 Q766.0806,165.1563 765.7056,165.1563 Q765.3619,165.1563 765.1587,164.9531 Q764.9556,164.7656 764.8462,164.25 Q764.7994,163.8906 764.6119,163.7031 Q764.2837,163.3281 763.6744,163.1094 Q763.065,162.8906 762.44,162.8906 Q761.6744,162.8906 761.0337,163.2188 Q760.4087,163.5469 759.9087,164.2969 Q759.4244,165.0469 759.4244,166.0781 L759.4244,167.1719 Q759.4244,168.4063 760.315,169.2344 Q761.2056,170.0469 762.7994,170.0469 Q763.7369,170.0469 764.3931,169.7969 Q764.7837,169.6406 765.2056,169.2031 Q765.4712,168.9375 765.6119,168.8594 Q765.7681,168.7813 765.9712,168.7813 Q766.2994,168.7813 766.5494,169.0469 Q766.815,169.2969 766.815,169.6406 Q766.815,169.9844 766.4712,170.3906 Q765.9712,170.9688 765.1744,171.2969 Q764.0962,171.75 762.7994,171.75 Q761.2837,171.75 760.0806,171.125 Q759.0962,170.625 758.4087,169.5625 Q757.7212,168.4844 757.7212,167.2031 L757.7212,166.0469 Q757.7212,164.7188 758.3306,163.5781 Q758.9556,162.4219 760.0494,161.8125 Q761.1431,161.1875 762.3775,161.1875 Q763.1119,161.1875 763.7525,161.3594 Q764.4087,161.5156 764.9556,161.875 Z " fill="#000000"/>
        <text fill="#000000" font-family="sans-serif" font-size="12" lengthAdjust="spacing" textLength="48" x="776.19" y="170.9102">EmpProj</text>
        <line style="stroke:#A80036;stroke-width:1.5;" x1="748.19" x2="826.19" y1="182" y2="182"/>
        <line style="stroke:#A80036;stroke-width:1.5;" x1="748.19" x2="826.19" y1="190" y2="190"/>
        <!--MD5=[3d7ab9dc856df746edce7a6eee0f3702]
class model.Employee-->
        <rect codeLine="13" fill="#FEFECE" filter="url(#f16wv5v7mziegk)" height="48" id="model.Employee" style="stroke:#A80036;stroke-width:1.5;" width="87" x="624.69" y="150"/>
        <ellipse cx="639.69" cy="166" fill="#ADD1B2" rx="11" ry="11" style="stroke:#A80036;stroke-width:1.0;"/>
        <path d="M642.4556,161.875 Q642.6119,161.6563 642.7994,161.5469 Q642.9869,161.4375 643.2056,161.4375 Q643.5806,161.4375 643.815,161.7031 Q644.0494,161.9531 644.0494,162.5625 L644.0494,164.0156 Q644.0494,164.625 643.815,164.8906 Q643.5806,165.1563 643.2056,165.1563 Q642.8619,165.1563 642.6587,164.9531 Q642.4556,164.7656 642.3462,164.25 Q642.2994,163.8906 642.1119,163.7031 Q641.7837,163.3281 641.1744,163.1094 Q640.565,162.8906 639.94,162.8906 Q639.1744,162.8906 638.5337,163.2188 Q637.9087,163.5469 637.4087,164.2969 Q636.9244,165.0469 636.9244,166.0781 L636.9244,167.1719 Q636.9244,168.4063 637.815,169.2344 Q638.7056,170.0469 640.2994,170.0469 Q641.2369,170.0469 641.8931,169.7969 Q642.2837,169.6406 642.7056,169.2031 Q642.9712,168.9375 643.1119,168.8594 Q643.2681,168.7813 643.4712,168.7813 Q643.7994,168.7813 644.0494,169.0469 Q644.315,169.2969 644.315,169.6406 Q644.315,169.9844 643.9712,170.3906 Q643.4712,170.9688 642.6744,171.2969 Q641.5962,171.75 640.2994,171.75 Q638.7837,171.75 637.5806,171.125 Q636.5962,170.625 635.9087,169.5625 Q635.2212,168.4844 635.2212,167.2031 L635.2212,166.0469 Q635.2212,164.7188 635.8306,163.5781 Q636.4556,162.4219 637.5494,161.8125 Q638.6431,161.1875 639.8775,161.1875 Q640.6119,161.1875 641.2525,161.3594 Q641.9087,161.5156 642.4556,161.875 Z " fill="#000000"/>
        <text fill="#000000" font-family="sans-serif" font-size="12" lengthAdjust="spacing" textLength="55" x="653.69" y="170.9102">Employee</text>
        <line style="stroke:#A80036;stroke-width:1.5;" x1="625.69" x2="710.69" y1="182" y2="182"/>
        <line style="stroke:#A80036;stroke-width:1.5;" x1="625.69" x2="710.69" y1="190" y2="190"/>
        <!--MD5=[72f362683e5d6f8a437ff05829f7525d]
class model.ExtendedProject-->
        <rect codeLine="14" fill="#FEFECE" filter="url(#f16wv5v7mziegk)" height="48" id="model.ExtendedProject" style="stroke:#A80036;stroke-width:1.5;" width="121" x="994.69" y="150"/>
        <ellipse cx="1009.69" cy="166" fill="#ADD1B2" rx="11" ry="11" style="stroke:#A80036;stroke-width:1.0;"/>
        <path d="M1012.4556,161.875 Q1012.6119,161.6563 1012.7994,161.5469 Q1012.9869,161.4375 1013.2056,161.4375 Q1013.5806,161.4375 1013.815,161.7031 Q1014.0494,161.9531 1014.0494,162.5625 L1014.0494,164.0156 Q1014.0494,164.625 1013.815,164.8906 Q1013.5806,165.1563 1013.2056,165.1563 Q1012.8619,165.1563 1012.6587,164.9531 Q1012.4556,164.7656 1012.3462,164.25 Q1012.2994,163.8906 1012.1119,163.7031 Q1011.7837,163.3281 1011.1744,163.1094 Q1010.565,162.8906 1009.94,162.8906 Q1009.1744,162.8906 1008.5337,163.2188 Q1007.9087,163.5469 1007.4087,164.2969 Q1006.9244,165.0469 1006.9244,166.0781 L1006.9244,167.1719 Q1006.9244,168.4063 1007.815,169.2344 Q1008.7056,170.0469 1010.2994,170.0469 Q1011.2369,170.0469 1011.8931,169.7969 Q1012.2837,169.6406 1012.7056,169.2031 Q1012.9712,168.9375 1013.1119,168.8594 Q1013.2681,168.7813 1013.4712,168.7813 Q1013.7994,168.7813 1014.0494,169.0469 Q1014.315,169.2969 1014.315,169.6406 Q1014.315,169.9844 1013.9712,170.3906 Q1013.4712,170.9688 1012.6744,171.2969 Q1011.5962,171.75 1010.2994,171.75 Q1008.7837,171.75 1007.5806,171.125 Q1006.5962,170.625 1005.9087,169.5625 Q1005.2212,168.4844 1005.2212,167.2031 L1005.2212,166.0469 Q1005.2212,164.7188 1005.8306,163.5781 Q1006.4556,162.4219 1007.5494,161.8125 Q1008.6431,161.1875 1009.8775,161.1875 Q1010.6119,161.1875 1011.2525,161.3594 Q1011.9087,161.5156 1012.4556,161.875 Z " fill="#000000"/>
        <text fill="#000000" font-family="sans-serif" font-size="12" lengthAdjust="spacing" textLength="89" x="1023.69" y="170.9102">ExtendedProject</text>
        <line style="stroke:#A80036;stroke-width:1.5;" x1="995.69" x2="1114.69" y1="182" y2="182"/>
        <line style="stroke:#A80036;stroke-width:1.5;" x1="995.69" x2="1114.69" y1="190" y2="190"/>
        <!--MD5=[2edc5ac83730d127ccbef4fe1dacd635]
class model.Project-->
        <rect codeLine="15" fill="#FEFECE" filter="url(#f16wv5v7mziegk)" height="48" id="model.Project" style="stroke:#A80036;stroke-width:1.5;" width="70" x="1151.19" y="150"/>
        <ellipse cx="1166.19" cy="166" fill="#ADD1B2" rx="11" ry="11" style="stroke:#A80036;stroke-width:1.0;"/>
        <path d="M1168.9556,161.875 Q1169.1119,161.6563 1169.2994,161.5469 Q1169.4869,161.4375 1169.7056,161.4375 Q1170.0806,161.4375 1170.315,161.7031 Q1170.5494,161.9531 1170.5494,162.5625 L1170.5494,164.0156 Q1170.5494,164.625 1170.315,164.8906 Q1170.0806,165.1563 1169.7056,165.1563 Q1169.3619,165.1563 1169.1588,164.9531 Q1168.9556,164.7656 1168.8463,164.25 Q1168.7994,163.8906 1168.6119,163.7031 Q1168.2838,163.3281 1167.6744,163.1094 Q1167.065,162.8906 1166.44,162.8906 Q1165.6744,162.8906 1165.0338,163.2188 Q1164.4088,163.5469 1163.9088,164.2969 Q1163.4244,165.0469 1163.4244,166.0781 L1163.4244,167.1719 Q1163.4244,168.4063 1164.315,169.2344 Q1165.2056,170.0469 1166.7994,170.0469 Q1167.7369,170.0469 1168.3931,169.7969 Q1168.7838,169.6406 1169.2056,169.2031 Q1169.4713,168.9375 1169.6119,168.8594 Q1169.7681,168.7813 1169.9713,168.7813 Q1170.2994,168.7813 1170.5494,169.0469 Q1170.815,169.2969 1170.815,169.6406 Q1170.815,169.9844 1170.4713,170.3906 Q1169.9713,170.9688 1169.1744,171.2969 Q1168.0963,171.75 1166.7994,171.75 Q1165.2838,171.75 1164.0806,171.125 Q1163.0963,170.625 1162.4088,169.5625 Q1161.7213,168.4844 1161.7213,167.2031 L1161.7213,166.0469 Q1161.7213,164.7188 1162.3306,163.5781 Q1162.9556,162.4219 1164.0494,161.8125 Q1165.1431,161.1875 1166.3775,161.1875 Q1167.1119,161.1875 1167.7525,161.3594 Q1168.4088,161.5156 1168.9556,161.875 Z " fill="#000000"/>
        <text fill="#000000" font-family="sans-serif" font-size="12" lengthAdjust="spacing" textLength="38" x="1180.19" y="170.9102">Project</text>
        <line style="stroke:#A80036;stroke-width:1.5;" x1="1152.19" x2="1220.19" y1="182" y2="182"/>
        <line style="stroke:#A80036;stroke-width:1.5;" x1="1152.19" x2="1220.19" y1="190" y2="190"/>
        <!--MD5=[9ab53d3cf178eb8cc8b1d0c4b184940d]
class model.DML-->
        <rect codeLine="19" fill="#FEFECE" filter="url(#f16wv5v7mziegk)" height="48" id="model.DML" style="stroke:#A80036;stroke-width:1.5;" width="57" x="902.69" y="274"/>
        <ellipse cx="917.69" cy="290" fill="#B4A7E5" rx="11" ry="11" style="stroke:#A80036;stroke-width:1.0;"/>
        <path d="M918.6431,286.6406 L918.6431,293.2969 L920.3619,293.2969 Q920.9712,293.2969 921.2369,293.5313 Q921.5025,293.7656 921.5025,294.1563 Q921.5025,294.5313 921.2369,294.7656 Q920.9712,295 920.3619,295 L915.2212,295 Q914.6119,295 914.3462,294.7656 Q914.0806,294.5313 914.0806,294.1406 Q914.0806,293.7656 914.3462,293.5313 Q914.6119,293.2969 915.2212,293.2969 L916.94,293.2969 L916.94,286.6406 L915.2212,286.6406 Q914.6119,286.6406 914.3462,286.4063 Q914.0806,286.1719 914.0806,285.7813 Q914.0806,285.4063 914.3462,285.1719 Q914.6119,284.9375 915.2212,284.9375 L920.3619,284.9375 Q920.9712,284.9375 921.2369,285.1719 Q921.5025,285.4063 921.5025,285.7813 Q921.5025,286.1719 921.2369,286.4063 Q920.9712,286.6406 920.3619,286.6406 L918.6431,286.6406 Z " fill="#000000"/>
        <text fill="#000000" font-family="sans-serif" font-size="12" font-style="italic" lengthAdjust="spacing" textLength="25" x="931.69" y="294.9102">DML</text>
        <line style="stroke:#A80036;stroke-width:1.5;" x1="903.69" x2="958.69" y1="306" y2="306"/>
        <line style="stroke:#A80036;stroke-width:1.5;" x1="903.69" x2="958.69" y1="314" y2="314"/>
        <!--MD5=[9a79a49df17979add30c77c4e8ee5587]
class model.DQL-->
        <rect codeLine="20" fill="#FEFECE" filter="url(#f16wv5v7mziegk)" height="48" id="model.DQL" style="stroke:#A80036;stroke-width:1.5;" width="57" x="1112.69" y="274"/>
        <ellipse cx="1127.69" cy="290" fill="#B4A7E5" rx="11" ry="11" style="stroke:#A80036;stroke-width:1.0;"/>
        <path d="M1128.6431,286.6406 L1128.6431,293.2969 L1130.3619,293.2969 Q1130.9713,293.2969 1131.2369,293.5313 Q1131.5025,293.7656 1131.5025,294.1563 Q1131.5025,294.5313 1131.2369,294.7656 Q1130.9713,295 1130.3619,295 L1125.2213,295 Q1124.6119,295 1124.3463,294.7656 Q1124.0806,294.5313 1124.0806,294.1406 Q1124.0806,293.7656 1124.3463,293.5313 Q1124.6119,293.2969 1125.2213,293.2969 L1126.94,293.2969 L1126.94,286.6406 L1125.2213,286.6406 Q1124.6119,286.6406 1124.3463,286.4063 Q1124.0806,286.1719 1124.0806,285.7813 Q1124.0806,285.4063 1124.3463,285.1719 Q1124.6119,284.9375 1125.2213,284.9375 L1130.3619,284.9375 Q1130.9713,284.9375 1131.2369,285.1719 Q1131.5025,285.4063 1131.5025,285.7813 Q1131.5025,286.1719 1131.2369,286.4063 Q1130.9713,286.6406 1130.3619,286.6406 L1128.6431,286.6406 Z " fill="#000000"/>
        <text fill="#000000" font-family="sans-serif" font-size="12" font-style="italic" lengthAdjust="spacing" textLength="25" x="1141.69" y="294.9102">DQL</text>
        <line style="stroke:#A80036;stroke-width:1.5;" x1="1113.69" x2="1168.69" y1="306" y2="306"/>
        <line style="stroke:#A80036;stroke-width:1.5;" x1="1113.69" x2="1168.69" y1="314" y2="314"/>
        <!--MD5=[3c78a2fa643d9223b1f8ad930e883961]
class java.lang.Override-->
        <rect codeLine="2" fill="#FEFECE" filter="url(#f16wv5v7mziegk)" height="48" id="java.lang.Override" style="stroke:#A80036;stroke-width:1.5;" width="78" x="1560.19" y="274"/>
        <ellipse cx="1575.19" cy="290" fill="#E3664A" rx="11" ry="11" style="stroke:#A80036;stroke-width:1.0;"/>
        <path d="M1577.5338,287.5781 L1577.5338,287.0625 Q1577.5338,286.2344 1577.0494,285.7344 Q1576.5806,285.2344 1575.8306,285.2344 Q1575.2369,285.2344 1574.7056,285.6406 Q1574.1744,286.0313 1573.9088,286.6563 Q1573.44,287.75 1573.44,288.8594 L1573.44,291.375 Q1573.44,293.2969 1574.2994,294.4219 Q1574.8619,295.1719 1575.8775,295.1719 Q1576.4244,295.1719 1576.8619,295.0313 Q1577.315,294.8906 1577.565,294.6406 Q1577.815,294.3906 1578.0338,294.3906 Q1578.2994,294.3906 1578.4869,294.5781 Q1578.6744,294.7656 1578.6744,295.0313 Q1578.6744,295.4531 1578.0963,295.8438 Q1577.2681,296.4063 1575.8306,296.4063 Q1574.7369,296.4063 1574.0181,295.9063 Q1573.0963,295.2656 1572.6431,294 Q1572.19,292.7344 1572.19,291.5 L1572.19,288.7656 Q1572.19,286.7813 1573.1744,285.3906 Q1574.1588,283.9844 1575.7994,283.9844 Q1576.5494,283.9844 1577.19,284.2969 Q1577.8463,284.5938 1578.315,285.3594 Q1578.7838,286.125 1578.7838,287.0625 L1578.7838,291.5938 Q1579.1431,291.7656 1579.1431,292.1563 Q1579.1431,292.4375 1578.94,292.625 Q1578.7525,292.7969 1578.2838,292.7969 L1577.5338,292.7969 L1577.5338,292.75 Q1577.1431,292.8125 1576.9556,292.8125 Q1575.9556,292.8125 1575.2056,292.0781 Q1574.4713,291.3281 1574.4713,290.3281 Q1574.4713,289.2656 1575.2838,288.4688 Q1576.1119,287.6719 1577.5338,287.5781 Z M1577.5338,288.8594 Q1576.6431,288.9531 1576.1744,289.375 Q1575.7213,289.7969 1575.7213,290.3438 Q1575.7213,290.8281 1576.0963,291.1719 Q1576.4869,291.5156 1577.1275,291.5156 Q1577.2525,291.5156 1577.5338,291.5 L1577.5338,288.8594 Z " fill="#000000"/>
        <text fill="#000000" font-family="sans-serif" font-size="12" lengthAdjust="spacing" textLength="46" x="1589.19" y="294.9102">Override</text>
        <line style="stroke:#A80036;stroke-width:1.5;" x1="1561.19" x2="1637.19" y1="306" y2="306"/>
        <line style="stroke:#A80036;stroke-width:1.5;" x1="1561.19" x2="1637.19" y1="314" y2="314"/>
        <!--MD5=[5fcb86e028869ab1088d78730f70e338]
class java.sql.Connection-->
        <rect codeLine="3" fill="#FEFECE" filter="url(#f16wv5v7mziegk)" height="48" id="java.sql.Connection" style="stroke:#A80036;stroke-width:1.5;" width="95" x="725.69" y="398"/>
        <ellipse cx="740.69" cy="414" fill="#ADD1B2" rx="11" ry="11" style="stroke:#A80036;stroke-width:1.0;"/>
        <path d="M743.4556,409.875 Q743.6119,409.6563 743.7994,409.5469 Q743.9869,409.4375 744.2056,409.4375 Q744.5806,409.4375 744.815,409.7031 Q745.0494,409.9531 745.0494,410.5625 L745.0494,412.0156 Q745.0494,412.625 744.815,412.8906 Q744.5806,413.1563 744.2056,413.1563 Q743.8619,413.1563 743.6587,412.9531 Q743.4556,412.7656 743.3462,412.25 Q743.2994,411.8906 743.1119,411.7031 Q742.7837,411.3281 742.1744,411.1094 Q741.565,410.8906 740.94,410.8906 Q740.1744,410.8906 739.5337,411.2188 Q738.9087,411.5469 738.4087,412.2969 Q737.9244,413.0469 737.9244,414.0781 L737.9244,415.1719 Q737.9244,416.4063 738.815,417.2344 Q739.7056,418.0469 741.2994,418.0469 Q742.2369,418.0469 742.8931,417.7969 Q743.2837,417.6406 743.7056,417.2031 Q743.9712,416.9375 744.1119,416.8594 Q744.2681,416.7813 744.4712,416.7813 Q744.7994,416.7813 745.0494,417.0469 Q745.315,417.2969 745.315,417.6406 Q745.315,417.9844 744.9712,418.3906 Q744.4712,418.9688 743.6744,419.2969 Q742.5962,419.75 741.2994,419.75 Q739.7837,419.75 738.5806,419.125 Q737.5962,418.625 736.9087,417.5625 Q736.2212,416.4844 736.2212,415.2031 L736.2212,414.0469 Q736.2212,412.7188 736.8306,411.5781 Q737.4556,410.4219 738.5494,409.8125 Q739.6431,409.1875 740.8775,409.1875 Q741.6119,409.1875 742.2525,409.3594 Q742.9087,409.5156 743.4556,409.875 Z " fill="#000000"/>
        <text fill="#000000" font-family="sans-serif" font-size="12" lengthAdjust="spacing" textLength="63" x="754.69" y="418.9102">Connection</text>
        <line style="stroke:#A80036;stroke-width:1.5;" x1="726.69" x2="819.69" y1="430" y2="430"/>
        <line style="stroke:#A80036;stroke-width:1.5;" x1="726.69" x2="819.69" y1="438" y2="438"/>
        <!--MD5=[0ce247d6f6b810636174dc78f3dfd920]
class java.sql.DriverManager-->
        <rect codeLine="4" fill="#FEFECE" filter="url(#f16wv5v7mziegk)" height="48" id="java.sql.DriverManager" style="stroke:#A80036;stroke-width:1.5;" width="112" x="856.19" y="398"/>
        <ellipse cx="871.19" cy="414" fill="#ADD1B2" rx="11" ry="11" style="stroke:#A80036;stroke-width:1.0;"/>
        <path d="M873.9556,409.875 Q874.1119,409.6563 874.2994,409.5469 Q874.4869,409.4375 874.7056,409.4375 Q875.0806,409.4375 875.315,409.7031 Q875.5494,409.9531 875.5494,410.5625 L875.5494,412.0156 Q875.5494,412.625 875.315,412.8906 Q875.0806,413.1563 874.7056,413.1563 Q874.3619,413.1563 874.1587,412.9531 Q873.9556,412.7656 873.8462,412.25 Q873.7994,411.8906 873.6119,411.7031 Q873.2837,411.3281 872.6744,411.1094 Q872.065,410.8906 871.44,410.8906 Q870.6744,410.8906 870.0337,411.2188 Q869.4087,411.5469 868.9087,412.2969 Q868.4244,413.0469 868.4244,414.0781 L868.4244,415.1719 Q868.4244,416.4063 869.315,417.2344 Q870.2056,418.0469 871.7994,418.0469 Q872.7369,418.0469 873.3931,417.7969 Q873.7837,417.6406 874.2056,417.2031 Q874.4712,416.9375 874.6119,416.8594 Q874.7681,416.7813 874.9712,416.7813 Q875.2994,416.7813 875.5494,417.0469 Q875.815,417.2969 875.815,417.6406 Q875.815,417.9844 875.4712,418.3906 Q874.9712,418.9688 874.1744,419.2969 Q873.0962,419.75 871.7994,419.75 Q870.2837,419.75 869.0806,419.125 Q868.0962,418.625 867.4087,417.5625 Q866.7212,416.4844 866.7212,415.2031 L866.7212,414.0469 Q866.7212,412.7188 867.3306,411.5781 Q867.9556,410.4219 869.0494,409.8125 Q870.1431,409.1875 871.3775,409.1875 Q872.1119,409.1875 872.7525,409.3594 Q873.4087,409.5156 873.9556,409.875 Z " fill="#000000"/>
        <text fill="#000000" font-family="sans-serif" font-size="12" lengthAdjust="spacing" textLength="80" x="885.19" y="418.9102">DriverManager</text>
        <line style="stroke:#A80036;stroke-width:1.5;" x1="857.19" x2="967.19" y1="430" y2="430"/>
        <line style="stroke:#A80036;stroke-width:1.5;" x1="857.19" x2="967.19" y1="438" y2="438"/>
        <!--MD5=[07a4118b6af040118095243d4f16abbf]
class java.sql.PreparedStatement-->
        <rect codeLine="5" fill="#FEFECE" filter="url(#f16wv5v7mziegk)" height="48" id="java.sql.PreparedStatement" style="stroke:#A80036;stroke-width:1.5;" width="139" x="285.69" y="398"/>
        <ellipse cx="300.69" cy="414" fill="#ADD1B2" rx="11" ry="11" style="stroke:#A80036;stroke-width:1.0;"/>
        <path d="M303.4556,409.875 Q303.6119,409.6563 303.7994,409.5469 Q303.9869,409.4375 304.2056,409.4375 Q304.5806,409.4375 304.815,409.7031 Q305.0494,409.9531 305.0494,410.5625 L305.0494,412.0156 Q305.0494,412.625 304.815,412.8906 Q304.5806,413.1563 304.2056,413.1563 Q303.8619,413.1563 303.6588,412.9531 Q303.4556,412.7656 303.3463,412.25 Q303.2994,411.8906 303.1119,411.7031 Q302.7838,411.3281 302.1744,411.1094 Q301.565,410.8906 300.94,410.8906 Q300.1744,410.8906 299.5338,411.2188 Q298.9088,411.5469 298.4088,412.2969 Q297.9244,413.0469 297.9244,414.0781 L297.9244,415.1719 Q297.9244,416.4063 298.815,417.2344 Q299.7056,418.0469 301.2994,418.0469 Q302.2369,418.0469 302.8931,417.7969 Q303.2838,417.6406 303.7056,417.2031 Q303.9713,416.9375 304.1119,416.8594 Q304.2681,416.7813 304.4713,416.7813 Q304.7994,416.7813 305.0494,417.0469 Q305.315,417.2969 305.315,417.6406 Q305.315,417.9844 304.9713,418.3906 Q304.4713,418.9688 303.6744,419.2969 Q302.5963,419.75 301.2994,419.75 Q299.7838,419.75 298.5806,419.125 Q297.5963,418.625 296.9088,417.5625 Q296.2213,416.4844 296.2213,415.2031 L296.2213,414.0469 Q296.2213,412.7188 296.8306,411.5781 Q297.4556,410.4219 298.5494,409.8125 Q299.6431,409.1875 300.8775,409.1875 Q301.6119,409.1875 302.2525,409.3594 Q302.9088,409.5156 303.4556,409.875 Z " fill="#000000"/>
        <text fill="#000000" font-family="sans-serif" font-size="12" lengthAdjust="spacing" textLength="107" x="314.69" y="418.9102">PreparedStatement</text>
        <line style="stroke:#A80036;stroke-width:1.5;" x1="286.69" x2="423.69" y1="430" y2="430"/>
        <line style="stroke:#A80036;stroke-width:1.5;" x1="286.69" x2="423.69" y1="438" y2="438"/>
        <!--MD5=[ca3892dc8b0229ebf88950402efb7cd1]
class java.sql.ResultSet-->
        <rect codeLine="6" fill="#FEFECE" filter="url(#f16wv5v7mziegk)" height="48" id="java.sql.ResultSet" style="stroke:#A80036;stroke-width:1.5;" width="86" x="460.19" y="398"/>
        <ellipse cx="475.19" cy="414" fill="#ADD1B2" rx="11" ry="11" style="stroke:#A80036;stroke-width:1.0;"/>
        <path d="M477.9556,409.875 Q478.1119,409.6563 478.2994,409.5469 Q478.4869,409.4375 478.7056,409.4375 Q479.0806,409.4375 479.315,409.7031 Q479.5494,409.9531 479.5494,410.5625 L479.5494,412.0156 Q479.5494,412.625 479.315,412.8906 Q479.0806,413.1563 478.7056,413.1563 Q478.3619,413.1563 478.1588,412.9531 Q477.9556,412.7656 477.8463,412.25 Q477.7994,411.8906 477.6119,411.7031 Q477.2838,411.3281 476.6744,411.1094 Q476.065,410.8906 475.44,410.8906 Q474.6744,410.8906 474.0338,411.2188 Q473.4088,411.5469 472.9088,412.2969 Q472.4244,413.0469 472.4244,414.0781 L472.4244,415.1719 Q472.4244,416.4063 473.315,417.2344 Q474.2056,418.0469 475.7994,418.0469 Q476.7369,418.0469 477.3931,417.7969 Q477.7838,417.6406 478.2056,417.2031 Q478.4713,416.9375 478.6119,416.8594 Q478.7681,416.7813 478.9713,416.7813 Q479.2994,416.7813 479.5494,417.0469 Q479.815,417.2969 479.815,417.6406 Q479.815,417.9844 479.4713,418.3906 Q478.9713,418.9688 478.1744,419.2969 Q477.0963,419.75 475.7994,419.75 Q474.2838,419.75 473.0806,419.125 Q472.0963,418.625 471.4088,417.5625 Q470.7213,416.4844 470.7213,415.2031 L470.7213,414.0469 Q470.7213,412.7188 471.3306,411.5781 Q471.9556,410.4219 473.0494,409.8125 Q474.1431,409.1875 475.3775,409.1875 Q476.1119,409.1875 476.7525,409.3594 Q477.4088,409.5156 477.9556,409.875 Z " fill="#000000"/>
        <text fill="#000000" font-family="sans-serif" font-size="12" lengthAdjust="spacing" textLength="54" x="489.19" y="418.9102">ResultSet</text>
        <line style="stroke:#A80036;stroke-width:1.5;" x1="461.19" x2="545.19" y1="430" y2="430"/>
        <line style="stroke:#A80036;stroke-width:1.5;" x1="461.19" x2="545.19" y1="438" y2="438"/>
        <!--MD5=[0dc616b5ef98f05494a35399b7990cbf]
class java.sql.SQLException-->
        <rect codeLine="7" fill="#FEFECE" filter="url(#f16wv5v7mziegk)" height="48" id="java.sql.SQLException" style="stroke:#A80036;stroke-width:1.5;" width="109" x="581.69" y="398"/>
        <ellipse cx="596.69" cy="414" fill="#ADD1B2" rx="11" ry="11" style="stroke:#A80036;stroke-width:1.0;"/>
        <path d="M599.4556,409.875 Q599.6119,409.6563 599.7994,409.5469 Q599.9869,409.4375 600.2056,409.4375 Q600.5806,409.4375 600.815,409.7031 Q601.0494,409.9531 601.0494,410.5625 L601.0494,412.0156 Q601.0494,412.625 600.815,412.8906 Q600.5806,413.1563 600.2056,413.1563 Q599.8619,413.1563 599.6587,412.9531 Q599.4556,412.7656 599.3462,412.25 Q599.2994,411.8906 599.1119,411.7031 Q598.7837,411.3281 598.1744,411.1094 Q597.565,410.8906 596.94,410.8906 Q596.1744,410.8906 595.5337,411.2188 Q594.9087,411.5469 594.4087,412.2969 Q593.9244,413.0469 593.9244,414.0781 L593.9244,415.1719 Q593.9244,416.4063 594.815,417.2344 Q595.7056,418.0469 597.2994,418.0469 Q598.2369,418.0469 598.8931,417.7969 Q599.2837,417.6406 599.7056,417.2031 Q599.9712,416.9375 600.1119,416.8594 Q600.2681,416.7813 600.4712,416.7813 Q600.7994,416.7813 601.0494,417.0469 Q601.315,417.2969 601.315,417.6406 Q601.315,417.9844 600.9712,418.3906 Q600.4712,418.9688 599.6744,419.2969 Q598.5962,419.75 597.2994,419.75 Q595.7837,419.75 594.5806,419.125 Q593.5962,418.625 592.9087,417.5625 Q592.2212,416.4844 592.2212,415.2031 L592.2212,414.0469 Q592.2212,412.7188 592.8306,411.5781 Q593.4556,410.4219 594.5494,409.8125 Q595.6431,409.1875 596.8775,409.1875 Q597.6119,409.1875 598.2525,409.3594 Q598.9087,409.5156 599.4556,409.875 Z " fill="#000000"/>
        <text fill="#000000" font-family="sans-serif" font-size="12" lengthAdjust="spacing" textLength="77" x="610.69" y="418.9102">SQLException</text>
        <line style="stroke:#A80036;stroke-width:1.5;" x1="582.69" x2="689.69" y1="430" y2="430"/>
        <line style="stroke:#A80036;stroke-width:1.5;" x1="582.69" x2="689.69" y1="438" y2="438"/>
        <!--MD5=[8479184e23c2bec09445fccfd361f5d2]
class java.util.ArrayList-->
        <rect codeLine="8" fill="#FEFECE" filter="url(#f16wv5v7mziegk)" height="48" id="java.util.ArrayList" style="stroke:#A80036;stroke-width:1.5;" width="79" x="1254.69" y="398"/>
        <ellipse cx="1269.69" cy="414" fill="#ADD1B2" rx="11" ry="11" style="stroke:#A80036;stroke-width:1.0;"/>
        <path d="M1272.4556,409.875 Q1272.6119,409.6563 1272.7994,409.5469 Q1272.9869,409.4375 1273.2056,409.4375 Q1273.5806,409.4375 1273.815,409.7031 Q1274.0494,409.9531 1274.0494,410.5625 L1274.0494,412.0156 Q1274.0494,412.625 1273.815,412.8906 Q1273.5806,413.1563 1273.2056,413.1563 Q1272.8619,413.1563 1272.6588,412.9531 Q1272.4556,412.7656 1272.3463,412.25 Q1272.2994,411.8906 1272.1119,411.7031 Q1271.7838,411.3281 1271.1744,411.1094 Q1270.565,410.8906 1269.94,410.8906 Q1269.1744,410.8906 1268.5338,411.2188 Q1267.9088,411.5469 1267.4088,412.2969 Q1266.9244,413.0469 1266.9244,414.0781 L1266.9244,415.1719 Q1266.9244,416.4063 1267.815,417.2344 Q1268.7056,418.0469 1270.2994,418.0469 Q1271.2369,418.0469 1271.8931,417.7969 Q1272.2838,417.6406 1272.7056,417.2031 Q1272.9713,416.9375 1273.1119,416.8594 Q1273.2681,416.7813 1273.4713,416.7813 Q1273.7994,416.7813 1274.0494,417.0469 Q1274.315,417.2969 1274.315,417.6406 Q1274.315,417.9844 1273.9713,418.3906 Q1273.4713,418.9688 1272.6744,419.2969 Q1271.5963,419.75 1270.2994,419.75 Q1268.7838,419.75 1267.5806,419.125 Q1266.5963,418.625 1265.9088,417.5625 Q1265.2213,416.4844 1265.2213,415.2031 L1265.2213,414.0469 Q1265.2213,412.7188 1265.8306,411.5781 Q1266.4556,410.4219 1267.5494,409.8125 Q1268.6431,409.1875 1269.8775,409.1875 Q1270.6119,409.1875 1271.2525,409.3594 Q1271.9088,409.5156 1272.4556,409.875 Z " fill="#000000"/>
        <text fill="#000000" font-family="sans-serif" font-size="12" lengthAdjust="spacing" textLength="47" x="1283.69" y="418.9102">ArrayList</text>
        <line style="stroke:#A80036;stroke-width:1.5;" x1="1255.69" x2="1332.69" y1="430" y2="430"/>
        <line style="stroke:#A80036;stroke-width:1.5;" x1="1255.69" x2="1332.69" y1="438" y2="438"/>
        <!--MD5=[97858d589252501528b07b5b18181cbf]
class java.util.logging.Level-->
        <rect codeLine="9" fill="#FEFECE" filter="url(#f16wv5v7mziegk)" height="48" id="java.util.logging.Level" style="stroke:#A80036;stroke-width:1.5;" width="61" x="1433.69" y="150"/>
        <ellipse cx="1448.69" cy="166" fill="#ADD1B2" rx="11" ry="11" style="stroke:#A80036;stroke-width:1.0;"/>
        <path d="M1451.4556,161.875 Q1451.6119,161.6563 1451.7994,161.5469 Q1451.9869,161.4375 1452.2056,161.4375 Q1452.5806,161.4375 1452.815,161.7031 Q1453.0494,161.9531 1453.0494,162.5625 L1453.0494,164.0156 Q1453.0494,164.625 1452.815,164.8906 Q1452.5806,165.1563 1452.2056,165.1563 Q1451.8619,165.1563 1451.6588,164.9531 Q1451.4556,164.7656 1451.3463,164.25 Q1451.2994,163.8906 1451.1119,163.7031 Q1450.7838,163.3281 1450.1744,163.1094 Q1449.565,162.8906 1448.94,162.8906 Q1448.1744,162.8906 1447.5338,163.2188 Q1446.9088,163.5469 1446.4088,164.2969 Q1445.9244,165.0469 1445.9244,166.0781 L1445.9244,167.1719 Q1445.9244,168.4063 1446.815,169.2344 Q1447.7056,170.0469 1449.2994,170.0469 Q1450.2369,170.0469 1450.8931,169.7969 Q1451.2838,169.6406 1451.7056,169.2031 Q1451.9713,168.9375 1452.1119,168.8594 Q1452.2681,168.7813 1452.4713,168.7813 Q1452.7994,168.7813 1453.0494,169.0469 Q1453.315,169.2969 1453.315,169.6406 Q1453.315,169.9844 1452.9713,170.3906 Q1452.4713,170.9688 1451.6744,171.2969 Q1450.5963,171.75 1449.2994,171.75 Q1447.7838,171.75 1446.5806,171.125 Q1445.5963,170.625 1444.9088,169.5625 Q1444.2213,168.4844 1444.2213,167.2031 L1444.2213,166.0469 Q1444.2213,164.7188 1444.8306,163.5781 Q1445.4556,162.4219 1446.5494,161.8125 Q1447.6431,161.1875 1448.8775,161.1875 Q1449.6119,161.1875 1450.2525,161.3594 Q1450.9088,161.5156 1451.4556,161.875 Z " fill="#000000"/>
        <text fill="#000000" font-family="sans-serif" font-size="12" lengthAdjust="spacing" textLength="29" x="1462.69" y="170.9102">Level</text>
        <line style="stroke:#A80036;stroke-width:1.5;" x1="1434.69" x2="1493.69" y1="182" y2="182"/>
        <line style="stroke:#A80036;stroke-width:1.5;" x1="1434.69" x2="1493.69" y1="190" y2="190"/>
        <!--MD5=[9e893cf6d9c856d6c611c04975a71345]
class java.util.logging.Logger-->
        <rect codeLine="10" fill="#FEFECE" filter="url(#f16wv5v7mziegk)" height="48" id="java.util.logging.Logger" style="stroke:#A80036;stroke-width:1.5;" width="71" x="1327.69" y="150"/>
        <ellipse cx="1342.69" cy="166" fill="#ADD1B2" rx="11" ry="11" style="stroke:#A80036;stroke-width:1.0;"/>
        <path d="M1345.4556,161.875 Q1345.6119,161.6563 1345.7994,161.5469 Q1345.9869,161.4375 1346.2056,161.4375 Q1346.5806,161.4375 1346.815,161.7031 Q1347.0494,161.9531 1347.0494,162.5625 L1347.0494,164.0156 Q1347.0494,164.625 1346.815,164.8906 Q1346.5806,165.1563 1346.2056,165.1563 Q1345.8619,165.1563 1345.6588,164.9531 Q1345.4556,164.7656 1345.3463,164.25 Q1345.2994,163.8906 1345.1119,163.7031 Q1344.7838,163.3281 1344.1744,163.1094 Q1343.565,162.8906 1342.94,162.8906 Q1342.1744,162.8906 1341.5338,163.2188 Q1340.9088,163.5469 1340.4088,164.2969 Q1339.9244,165.0469 1339.9244,166.0781 L1339.9244,167.1719 Q1339.9244,168.4063 1340.815,169.2344 Q1341.7056,170.0469 1343.2994,170.0469 Q1344.2369,170.0469 1344.8931,169.7969 Q1345.2838,169.6406 1345.7056,169.2031 Q1345.9713,168.9375 1346.1119,168.8594 Q1346.2681,168.7813 1346.4713,168.7813 Q1346.7994,168.7813 1347.0494,169.0469 Q1347.315,169.2969 1347.315,169.6406 Q1347.315,169.9844 1346.9713,170.3906 Q1346.4713,170.9688 1345.6744,171.2969 Q1344.5963,171.75 1343.2994,171.75 Q1341.7838,171.75 1340.5806,171.125 Q1339.5963,170.625 1338.9088,169.5625 Q1338.2213,168.4844 1338.2213,167.2031 L1338.2213,166.0469 Q1338.2213,164.7188 1338.8306,163.5781 Q1339.4556,162.4219 1340.5494,161.8125 Q1341.6431,161.1875 1342.8775,161.1875 Q1343.6119,161.1875 1344.2525,161.3594 Q1344.9088,161.5156 1345.4556,161.875 Z " fill="#000000"/>
        <text fill="#000000" font-family="sans-serif" font-size="12" lengthAdjust="spacing" textLength="39" x="1356.69" y="170.9102">Logger</text>
        <line style="stroke:#A80036;stroke-width:1.5;" x1="1328.69" x2="1397.69" y1="182" y2="182"/>
        <line style="stroke:#A80036;stroke-width:1.5;" x1="1328.69" x2="1397.69" y1="190" y2="190"/>
        <!--MD5=[e3697d054b35bcfc860955cabdf66cc1]
class model.another.EmployeeData-->
        <rect codeLine="16" fill="#FEFECE" filter="url(#f16wv5v7mziegk)" height="48" id="model.another.EmployeeData" style="stroke:#A80036;stroke-width:1.5;" width="113" x="454.69" y="42"/>
        <ellipse cx="469.69" cy="58" fill="#ADD1B2" rx="11" ry="11" style="stroke:#A80036;stroke-width:1.0;"/>
        <path d="M472.4556,53.875 Q472.6119,53.6563 472.7994,53.5469 Q472.9869,53.4375 473.2056,53.4375 Q473.5806,53.4375 473.815,53.7031 Q474.0494,53.9531 474.0494,54.5625 L474.0494,56.0156 Q474.0494,56.625 473.815,56.8906 Q473.5806,57.1563 473.2056,57.1563 Q472.8619,57.1563 472.6588,56.9531 Q472.4556,56.7656 472.3463,56.25 Q472.2994,55.8906 472.1119,55.7031 Q471.7838,55.3281 471.1744,55.1094 Q470.565,54.8906 469.94,54.8906 Q469.1744,54.8906 468.5338,55.2188 Q467.9088,55.5469 467.4088,56.2969 Q466.9244,57.0469 466.9244,58.0781 L466.9244,59.1719 Q466.9244,60.4063 467.815,61.2344 Q468.7056,62.0469 470.2994,62.0469 Q471.2369,62.0469 471.8931,61.7969 Q472.2838,61.6406 472.7056,61.2031 Q472.9713,60.9375 473.1119,60.8594 Q473.2681,60.7813 473.4713,60.7813 Q473.7994,60.7813 474.0494,61.0469 Q474.315,61.2969 474.315,61.6406 Q474.315,61.9844 473.9713,62.3906 Q473.4713,62.9688 472.6744,63.2969 Q471.5963,63.75 470.2994,63.75 Q468.7838,63.75 467.5806,63.125 Q466.5963,62.625 465.9088,61.5625 Q465.2213,60.4844 465.2213,59.2031 L465.2213,58.0469 Q465.2213,56.7188 465.8306,55.5781 Q466.4556,54.4219 467.5494,53.8125 Q468.6431,53.1875 469.8775,53.1875 Q470.6119,53.1875 471.2525,53.3594 Q471.9088,53.5156 472.4556,53.875 Z " fill="#000000"/>
        <text fill="#000000" font-family="sans-serif" font-size="12" lengthAdjust="spacing" textLength="81" x="483.69" y="62.9102">EmployeeData</text>
        <line style="stroke:#A80036;stroke-width:1.5;" x1="455.69" x2="566.69" y1="74" y2="74"/>
        <line style="stroke:#A80036;stroke-width:1.5;" x1="455.69" x2="566.69" y1="82" y2="82"/>
        <!--MD5=[c5efc0a58e8f963b98a320197a9e77af]
class model.another.SqlRecord-->
        <rect codeLine="17" fill="#FEFECE" filter="url(#f16wv5v7mziegk)" height="48" id="model.another.SqlRecord" style="stroke:#A80036;stroke-width:1.5;" width="90" x="466.19" y="150"/>
        <ellipse cx="481.19" cy="166" fill="#ADD1B2" rx="11" ry="11" style="stroke:#A80036;stroke-width:1.0;"/>
        <path d="M483.9556,161.875 Q484.1119,161.6563 484.2994,161.5469 Q484.4869,161.4375 484.7056,161.4375 Q485.0806,161.4375 485.315,161.7031 Q485.5494,161.9531 485.5494,162.5625 L485.5494,164.0156 Q485.5494,164.625 485.315,164.8906 Q485.0806,165.1563 484.7056,165.1563 Q484.3619,165.1563 484.1588,164.9531 Q483.9556,164.7656 483.8463,164.25 Q483.7994,163.8906 483.6119,163.7031 Q483.2838,163.3281 482.6744,163.1094 Q482.065,162.8906 481.44,162.8906 Q480.6744,162.8906 480.0338,163.2188 Q479.4088,163.5469 478.9088,164.2969 Q478.4244,165.0469 478.4244,166.0781 L478.4244,167.1719 Q478.4244,168.4063 479.315,169.2344 Q480.2056,170.0469 481.7994,170.0469 Q482.7369,170.0469 483.3931,169.7969 Q483.7838,169.6406 484.2056,169.2031 Q484.4713,168.9375 484.6119,168.8594 Q484.7681,168.7813 484.9713,168.7813 Q485.2994,168.7813 485.5494,169.0469 Q485.815,169.2969 485.815,169.6406 Q485.815,169.9844 485.4713,170.3906 Q484.9713,170.9688 484.1744,171.2969 Q483.0963,171.75 481.7994,171.75 Q480.2838,171.75 479.0806,171.125 Q478.0963,170.625 477.4088,169.5625 Q476.7213,168.4844 476.7213,167.2031 L476.7213,166.0469 Q476.7213,164.7188 477.3306,163.5781 Q477.9556,162.4219 479.0494,161.8125 Q480.1431,161.1875 481.3775,161.1875 Q482.1119,161.1875 482.7525,161.3594 Q483.4088,161.5156 483.9556,161.875 Z " fill="#000000"/>
        <text fill="#000000" font-family="sans-serif" font-size="12" lengthAdjust="spacing" textLength="58" x="495.19" y="170.9102">SqlRecord</text>
        <line style="stroke:#A80036;stroke-width:1.5;" x1="467.19" x2="555.19" y1="182" y2="182"/>
        <line style="stroke:#A80036;stroke-width:1.5;" x1="467.19" x2="555.19" y1="190" y2="190"/>
        <!--MD5=[70b16d35c01f2a5b401ce814857bf1dd]
class model.another.StaticDemo-->
        <rect codeLine="18" fill="#FEFECE" filter="url(#f16wv5v7mziegk)" height="48" id="model.another.StaticDemo" style="stroke:#A80036;stroke-width:1.5;" width="96" x="323.19" y="42"/>
        <ellipse cx="338.19" cy="58" fill="#ADD1B2" rx="11" ry="11" style="stroke:#A80036;stroke-width:1.0;"/>
        <path d="M340.9556,53.875 Q341.1119,53.6563 341.2994,53.5469 Q341.4869,53.4375 341.7056,53.4375 Q342.0806,53.4375 342.315,53.7031 Q342.5494,53.9531 342.5494,54.5625 L342.5494,56.0156 Q342.5494,56.625 342.315,56.8906 Q342.0806,57.1563 341.7056,57.1563 Q341.3619,57.1563 341.1588,56.9531 Q340.9556,56.7656 340.8463,56.25 Q340.7994,55.8906 340.6119,55.7031 Q340.2838,55.3281 339.6744,55.1094 Q339.065,54.8906 338.44,54.8906 Q337.6744,54.8906 337.0338,55.2188 Q336.4088,55.5469 335.9088,56.2969 Q335.4244,57.0469 335.4244,58.0781 L335.4244,59.1719 Q335.4244,60.4063 336.315,61.2344 Q337.2056,62.0469 338.7994,62.0469 Q339.7369,62.0469 340.3931,61.7969 Q340.7838,61.6406 341.2056,61.2031 Q341.4713,60.9375 341.6119,60.8594 Q341.7681,60.7813 341.9713,60.7813 Q342.2994,60.7813 342.5494,61.0469 Q342.815,61.2969 342.815,61.6406 Q342.815,61.9844 342.4713,62.3906 Q341.9713,62.9688 341.1744,63.2969 Q340.0963,63.75 338.7994,63.75 Q337.2838,63.75 336.0806,63.125 Q335.0963,62.625 334.4088,61.5625 Q333.7213,60.4844 333.7213,59.2031 L333.7213,58.0469 Q333.7213,56.7188 334.3306,55.5781 Q334.9556,54.4219 336.0494,53.8125 Q337.1431,53.1875 338.3775,53.1875 Q339.1119,53.1875 339.7525,53.3594 Q340.4088,53.5156 340.9556,53.875 Z " fill="#000000"/>
        <text fill="#000000" font-family="sans-serif" font-size="12" lengthAdjust="spacing" textLength="64" x="352.19" y="62.9102">StaticDemo</text>
        <line style="stroke:#A80036;stroke-width:1.5;" x1="324.19" x2="418.19" y1="74" y2="74"/>
        <line style="stroke:#A80036;stroke-width:1.5;" x1="324.19" x2="418.19" y1="82" y2="82"/>
        <!--MD5=[80bcf3aa5a8ad8d4de8a93a880733d73]
link model.DBModel to java.sql.Connection-->
        <path codeLine="21" d="M1013.91,322.16 C1003.66,331.28 990.76,340.81 977.19,346 C948.49,356.97 867.17,341.32 839.19,354 C820.29,362.56 803.89,379.13 792.17,393.65 " fill="none" id="model.DBModel-to-java.sql.Connection" style="stroke:#A80036;stroke-width:1.0;stroke-dasharray:7.0,7.0;"/>
        <polygon fill="#A80036" points="788.99,397.68,797.7052,393.0926,792.0873,393.7549,791.425,388.1369,788.99,397.68" style="stroke:#A80036;stroke-width:1.0;"/>
        <!--MD5=[b8476bf8dc75f1fe5b53f8a32226a850]
link model.DBModel to java.sql.DriverManager-->
        <path codeLine="22" d="M1012.57,322.23 C991.71,342.76 961.3,372.68 939.42,394.2 " fill="none" id="model.DBModel-to-java.sql.DriverManager" style="stroke:#A80036;stroke-width:1.0;stroke-dasharray:7.0,7.0;"/>
        <polygon fill="#A80036" points="935.71,397.85,944.9307,394.389,939.274,394.3432,939.3198,388.6865,935.71,397.85" style="stroke:#A80036;stroke-width:1.0;"/>
        <!--MD5=[9d41603b0b42a7bed2f28b06d36f2cbc]
link model.DBModel to java.sql.PreparedStatement-->
        <path codeLine="23" d="M1014.29,322.19 C1004.01,331.44 990.99,341.06 977.19,346 C921.32,366 499.27,334.61 443.19,354 C419.6,362.16 397.27,379.3 381.01,394.21 " fill="none" id="model.DBModel-to-java.sql.PreparedStatement" style="stroke:#A80036;stroke-width:1.0;stroke-dasharray:7.0,7.0;"/>
        <polygon fill="#A80036" points="377.01,397.94,386.3183,394.7221,380.6648,394.5279,380.859,388.8744,377.01,397.94" style="stroke:#A80036;stroke-width:1.0;"/>
        <!--MD5=[4be121c73c1be20894c52a434eb3e82b]
link model.DBModel to java.sql.SQLException-->
        <path codeLine="24" d="M1014.26,322.09 C1003.97,331.33 990.96,340.95 977.19,346 C921.03,366.57 763.51,331.29 708.19,354 C687.97,362.3 669.98,379.04 657.03,393.71 " fill="none" id="model.DBModel-to-java.sql.SQLException" style="stroke:#A80036;stroke-width:1.0;stroke-dasharray:7.0,7.0;"/>
        <polygon fill="#A80036" points="653.52,397.79,662.4311,393.5957,656.7892,394.0068,656.3781,388.365,653.52,397.79" style="stroke:#A80036;stroke-width:1.0;"/>
        <!--MD5=[52d6569d541568e0e88069d12bcd5fa8]
link model.DBModel to java.util.ArrayList-->
        <path codeLine="25" d="M1061.65,322.16 C1071.61,330.43 1083.46,339.34 1095.19,346 C1145.16,374.39 1207.94,395.98 1249.48,408.55 " fill="none" id="model.DBModel-to-java.util.ArrayList" style="stroke:#A80036;stroke-width:1.0;stroke-dasharray:7.0,7.0;"/>
        <polygon fill="#A80036" points="1254.43,410.04,1246.9625,403.6185,1249.6417,408.6006,1244.6595,411.2798,1254.43,410.04" style="stroke:#A80036;stroke-width:1.0;"/>
        <!--MD5=[ad1113bea5f3260a45b033927e40ca75]
link model.Department to model.DBModel-->
        <path codeLine="26" d="M940.94,198.16 C952.59,207.65 965.85,218.97 977.19,230 C986.29,238.86 995.62,248.92 1004.09,258.5 " fill="none" id="model.Department-to-model.DBModel" style="stroke:#A80036;stroke-width:1.0;"/>
        <polygon fill="none" points="1009.59,254.16,1017.35,273.88,998.99,263.3,1009.59,254.16" style="stroke:#A80036;stroke-width:1.0;"/>
        <!--MD5=[4d11990cd38bf7c331ae320a2ae23d2b]
link model.Department to java.lang.Override-->
        <path codeLine="27" d="M936.14,198.19 C947.72,207.44 962.23,217.06 977.19,222 C1020.87,236.43 1345.8,222.42 1391.19,230 C1449.56,239.75 1514.02,262.49 1555.48,278.78 " fill="none" id="model.Department-to-java.lang.Override" style="stroke:#A80036;stroke-width:1.0;stroke-dasharray:7.0,7.0;"/>
        <polygon fill="#A80036" points="1560.17,280.63,1553.2732,273.5991,1555.5208,278.7903,1550.3296,281.0379,1560.17,280.63" style="stroke:#A80036;stroke-width:1.0;"/>
        <!--MD5=[ceedf8850886efc1fdb4225d86b74d5e]
link model.Department to java.sql.PreparedStatement-->
        <path codeLine="28" d="M886.24,198.21 C874.65,207.47 860.15,217.08 845.19,222 C832.46,226.18 372.77,220.65 363.19,230 C319.91,272.19 334.15,351 345.98,392.99 " fill="none" id="model.Department-to-java.sql.PreparedStatement" style="stroke:#A80036;stroke-width:1.0;stroke-dasharray:7.0,7.0;"/>
        <polygon fill="#A80036" points="347.41,397.92,348.7568,388.1637,346.0232,393.1162,341.0707,390.3826,347.41,397.92" style="stroke:#A80036;stroke-width:1.0;"/>
        <!--MD5=[0e5e98cfaa9740682721ceb5abe53871]
link model.Department to java.sql.ResultSet-->
        <path codeLine="29" d="M886.23,198.2 C874.65,207.46 860.15,217.07 845.19,222 C833.36,225.9 405.91,221.12 397.19,230 C361.06,266.78 364.07,306.48 397.19,346 C410.23,361.57 424.4,344.19 442.19,354 C459.29,363.43 474.15,379.48 484.92,393.5 " fill="none" id="model.Department-to-java.sql.ResultSet" style="stroke:#A80036;stroke-width:1.0;stroke-dasharray:7.0,7.0;"/>
        <polygon fill="#A80036" points="488.13,397.78,485.93,388.18,485.13,393.78,479.53,392.98,488.13,397.78" style="stroke:#A80036;stroke-width:1.0;"/>
        <!--MD5=[6eaf1b6ead575d7d23bfac6a8c24753d]
link model.Department to java.sql.SQLException-->
        <path codeLine="30" d="M885.85,198.23 C874.3,207.37 859.94,216.88 845.19,222 C827.95,227.98 695.21,218.33 681.19,230 C633.38,269.79 630.87,349.97 633.37,392.7 " fill="none" id="model.Department-to-java.sql.SQLException" style="stroke:#A80036;stroke-width:1.0;stroke-dasharray:7.0,7.0;"/>
        <polygon fill="#A80036" points="633.69,397.72,637.0912,388.4771,633.3621,392.7308,629.1085,389.0017,633.69,397.72" style="stroke:#A80036;stroke-width:1.0;"/>
        <!--MD5=[0160f7de8c2c5bf88f197e7cc03892e6]
link model.Department to java.util.ArrayList-->
        <path codeLine="31" d="M936.15,198.16 C947.73,207.41 962.24,217.03 977.19,222 C995.27,228.02 1306.87,216.37 1320.19,230 C1362.74,273.56 1331.66,351.71 1310.12,393.26 " fill="none" id="model.Department-to-java.util.ArrayList" style="stroke:#A80036;stroke-width:1.0;stroke-dasharray:7.0,7.0;"/>
        <polygon fill="#A80036" points="1307.68,397.9,1315.409,391.7956,1310.007,393.4745,1308.3281,388.0725,1307.68,397.9" style="stroke:#A80036;stroke-width:1.0;"/>
        <!--MD5=[96a6ff4afbe88f4b76c86b64b2b1f08e]
link model.Department to model.DML-->
        <path codeLine="32" d="M914.99,198.23 C917.57,213.92 921.04,235.1 924.11,253.83 " fill="none" id="model.Department-to-model.DML" style="stroke:#A80036;stroke-width:1.0;"/>
        <polygon fill="none" points="931.06,252.98,927.39,273.85,917.25,255.25,931.06,252.98" style="stroke:#A80036;stroke-width:1.0;"/>
        <!--MD5=[9c9f8f4d0701733b4bd4dc3cc50e3cb5]
link model.EmpProj to model.DBModel-->
        <path codeLine="33" d="M809.02,198.14 C819.09,207.26 831.78,216.79 845.19,222 C872.58,232.65 950.78,217.09 977.19,230 C990.04,236.28 1001.29,246.75 1010.43,257.56 " fill="none" id="model.EmpProj-to-model.DBModel" style="stroke:#A80036;stroke-width:1.0;"/>
        <polygon fill="none" points="1016.17,253.55,1022.61,273.74,1004.99,261.97,1016.17,253.55" style="stroke:#A80036;stroke-width:1.0;"/>
        <!--MD5=[5fc4a527bcbe752deb6e9a33fecf5134]
link model.EmpProj to java.lang.Override-->
        <path codeLine="34" d="M808.65,198.17 C818.74,207.42 831.54,217.04 845.19,222 C869.99,231.02 1294,226.68 1320.19,230 C1404.61,240.72 1500.61,266.97 1555.13,283.25 " fill="none" id="model.EmpProj-to-java.lang.Override" style="stroke:#A80036;stroke-width:1.0;stroke-dasharray:7.0,7.0;"/>
        <polygon fill="#A80036" points="1559.96,284.69,1552.4977,278.2623,1555.1728,283.2467,1550.1885,285.9218,1559.96,284.69" style="stroke:#A80036;stroke-width:1.0;"/>
        <!--MD5=[197ef69cc489566607dd32d846b5223a]
link model.EmpProj to java.sql.PreparedStatement-->
        <path codeLine="35" d="M765.72,198.16 C755.63,207.41 742.82,217.03 729.19,222 C706.32,230.34 308.24,212.63 291.19,230 C255.06,266.79 273.35,297.63 291.19,346 C297.95,364.35 311.43,381.26 324.27,394.36 " fill="none" id="model.EmpProj-to-java.sql.PreparedStatement" style="stroke:#A80036;stroke-width:1.0;stroke-dasharray:7.0,7.0;"/>
        <polygon fill="#A80036" points="327.87,397.95,324.3159,388.7648,324.3273,394.4216,318.6705,394.433,327.87,397.95" style="stroke:#A80036;stroke-width:1.0;"/>
        <!--MD5=[4104f08b3b23b6812184d70241a52aca]
link model.EmpProj to java.sql.ResultSet-->
        <path codeLine="36" d="M765.72,198.15 C755.62,207.4 742.82,217.02 729.19,222 C708.15,229.69 341.86,214.01 326.19,230 C290.09,266.82 291.01,308.31 326.19,346 C343.82,364.89 418.92,342.75 442.19,354 C460.02,362.63 475.08,378.99 485.77,393.38 " fill="none" id="model.EmpProj-to-java.sql.ResultSet" style="stroke:#A80036;stroke-width:1.0;stroke-dasharray:7.0,7.0;"/>
        <polygon fill="#A80036" points="488.94,397.77,486.9158,388.1314,486.0136,393.7159,480.4291,392.8137,488.94,397.77" style="stroke:#A80036;stroke-width:1.0;"/>
        <!--MD5=[e2140b844217a58f1cbcddf712f547c1]
link model.EmpProj to java.sql.SQLException-->
        <path codeLine="37" d="M765.33,198.09 C755.26,207.21 742.58,216.74 729.19,222 C716.85,226.84 619.24,220.32 610.19,230 C568.7,274.37 599.11,351.83 620.32,393.16 " fill="none" id="model.EmpProj-to-java.sql.SQLException" style="stroke:#A80036;stroke-width:1.0;stroke-dasharray:7.0,7.0;"/>
        <polygon fill="#A80036" points="622.73,397.78,622.1067,387.9509,620.4142,393.3486,615.0165,391.6561,622.73,397.78" style="stroke:#A80036;stroke-width:1.0;"/>
        <!--MD5=[2de76d3641f4b3211a4ab50ab92a8b41]
link model.EmpProj to java.util.ArrayList-->
        <path codeLine="38" d="M808.65,198.15 C818.75,207.4 831.55,217.02 845.19,222 C866.27,229.71 1231.72,215.89 1249.19,230 C1297.69,269.19 1299.84,350 1297.12,392.86 " fill="none" id="model.EmpProj-to-java.util.ArrayList" style="stroke:#A80036;stroke-width:1.0;stroke-dasharray:7.0,7.0;"/>
        <polygon fill="#A80036" points="1296.77,397.9,1301.378,389.1956,1297.113,392.9118,1293.3969,388.6468,1296.77,397.9" style="stroke:#A80036;stroke-width:1.0;"/>
        <!--MD5=[5af5c8f47872aff15eb721cafa60d08c]
link model.EmpProj to model.DML-->
        <path codeLine="39" d="M814.61,198.23 C835.43,215.87 864.44,240.46 888.32,260.68 " fill="none" id="model.EmpProj-to-model.DML" style="stroke:#A80036;stroke-width:1.0;"/>
        <polygon fill="none" points="893.13,255.58,903.86,273.85,884.08,266.26,893.13,255.58" style="stroke:#A80036;stroke-width:1.0;"/>
        <!--MD5=[9395faac661c1223c4691fdff7a86bbe]
link model.Employee to model.DBModel-->
        <path codeLine="40" d="M691.43,198.09 C702.28,207.32 715.93,216.95 730.19,222 C756.07,231.17 952.35,218.29 977.19,230 C990.22,236.15 1001.57,246.66 1010.73,257.57 " fill="none" id="model.Employee-to-model.DBModel" style="stroke:#A80036;stroke-width:1.0;"/>
        <polygon fill="none" points="1016.57,253.68,1022.91,273.9,1005.34,262.05,1016.57,253.68" style="stroke:#A80036;stroke-width:1.0;"/>
        <!--MD5=[45b97377ad011ffbd582154bfdac6dde]
link model.Employee to java.lang.Override-->
        <path codeLine="41" d="M691.39,198.2 C702.23,207.45 715.88,217.07 730.19,222 C756.81,231.19 1209.15,227.2 1237.19,230 C1352.94,241.54 1487.08,270.54 1554.95,286.34 " fill="none" id="model.Employee-to-java.lang.Override" style="stroke:#A80036;stroke-width:1.0;stroke-dasharray:7.0,7.0;"/>
        <polygon fill="#A80036" points="1560.12,287.54,1552.2715,281.5901,1555.2522,286.398,1550.4443,289.3786,1560.12,287.54" style="stroke:#A80036;stroke-width:1.0;"/>
        <!--MD5=[3e0376319f71c5b21c04ce16d2a917fe]
link model.Employee to java.sql.PreparedStatement-->
        <path codeLine="42" d="M635.91,198.03 C620.93,207.37 602.42,217.1 584.19,222 C569.64,225.91 52.75,219.27 42.19,230 C6,266.72 10.26,305.52 42.19,346 C71.26,382.87 197.06,403.65 280.05,413.58 " fill="none" id="model.Employee-to-java.sql.PreparedStatement" style="stroke:#A80036;stroke-width:1.0;stroke-dasharray:7.0,7.0;"/>
        <polygon fill="#A80036" points="285.45,414.22,276.9815,409.1916,280.4845,413.6333,276.0428,417.1363,285.45,414.22" style="stroke:#A80036;stroke-width:1.0;"/>
        <!--MD5=[18c2539c960648235abe41149b739370]
link model.Employee to java.sql.ResultSet-->
        <path codeLine="43" d="M635.5,198.23 C620.58,207.49 602.25,217.1 584.19,222 C562.73,227.82 199.74,214.13 184.19,230 C148.1,266.82 148.3,308.98 184.19,346 C194.17,356.3 429.16,348 442.19,354 C460.31,362.35 475.46,378.88 486.12,393.43 " fill="none" id="model.Employee-to-java.sql.ResultSet" style="stroke:#A80036;stroke-width:1.0;stroke-dasharray:7.0,7.0;"/>
        <polygon fill="#A80036" points="489.28,397.87,487.2942,388.2234,486.3698,393.8042,480.789,392.8798,489.28,397.87" style="stroke:#A80036;stroke-width:1.0;"/>
        <!--MD5=[8e928e87f5d0d777446706d6c15f704f]
link model.Employee to java.sql.SQLException-->
        <path codeLine="44" d="M633.05,198.12 C618.46,206.79 601.02,215.99 584.19,222 C565.05,228.83 552.23,214.43 539.19,230 C506.07,269.52 508.79,304.36 539.19,346 C546.06,355.42 554.12,348.11 564.19,354 C582.23,364.57 599.49,380.36 612.59,393.96 " fill="none" id="model.Employee-to-java.sql.SQLException" style="stroke:#A80036;stroke-width:1.0;stroke-dasharray:7.0,7.0;"/>
        <polygon fill="#A80036" points="616.17,397.73,612.877,388.448,612.7285,394.1029,607.0736,393.9544,616.17,397.73" style="stroke:#A80036;stroke-width:1.0;"/>
        <!--MD5=[c540c93e3885b42ec81c12e5ee27bcd4]
link model.Employee to java.util.ArrayList-->
        <path codeLine="45" d="M691.4,198.19 C702.23,207.44 715.89,217.05 730.19,222 C754.18,230.3 1165.7,216.46 1187.19,230 C1235.95,260.73 1216.49,296.01 1245.19,346 C1254.45,362.14 1265.75,379.57 1275.17,393.56 " fill="none" id="model.Employee-to-java.util.ArrayList" style="stroke:#A80036;stroke-width:1.0;stroke-dasharray:7.0,7.0;"/>
        <polygon fill="#A80036" points="1278.03,397.79,1276.3044,388.0935,1275.2302,393.6474,1269.6763,392.5732,1278.03,397.79" style="stroke:#A80036;stroke-width:1.0;"/>
        <!--MD5=[ccd540a24f9f561d74ab1fc84c05829e]
link model.Employee to model.DML-->
        <path codeLine="46" d="M695.09,198.11 C705.58,206.38 718,215.29 730.19,222 C779.74,249.26 841.22,270.57 883.05,283.39 " fill="none" id="model.Employee-to-model.DML" style="stroke:#A80036;stroke-width:1.0;"/>
        <polygon fill="none" points="885.24,276.74,902.42,289.16,881.25,290.16,885.24,276.74" style="stroke:#A80036;stroke-width:1.0;"/>
        <!--MD5=[e4a1ccb79eb46e769a609f9ba166c655]
link model.ExtendedProject to model.DBModel-->
        <path codeLine="47" d="M1051.57,198.23 C1049.12,213.92 1045.82,235.1 1042.91,253.83 " fill="none" id="model.ExtendedProject-to-model.DBModel" style="stroke:#A80036;stroke-width:1.0;"/>
        <polygon fill="none" points="1049.78,255.17,1039.79,273.85,1035.95,253.01,1049.78,255.17" style="stroke:#A80036;stroke-width:1.0;"/>
        <!--MD5=[a075f3350c1d11f41e2b12c3ac5dc756]
link model.ExtendedProject to java.lang.Override-->
        <path codeLine="48" d="M1085.75,198.19 C1099.74,207.44 1117.01,217.05 1134.19,222 C1204.25,242.19 1391.36,212.7 1462.19,230 C1496.47,238.38 1532.19,256.19 1558.56,271.35 " fill="none" id="model.ExtendedProject-to-java.lang.Override" style="stroke:#A80036;stroke-width:1.0;stroke-dasharray:7.0,7.0;"/>
        <polygon fill="#A80036" points="1563.04,273.95,1557.2584,265.9767,1558.7138,271.4431,1553.2474,272.8985,1563.04,273.95" style="stroke:#A80036;stroke-width:1.0;"/>
        <!--MD5=[8cd006ac6c37a36c7ed49ef50917d24d]
link model.ExtendedProject to java.sql.ResultSet-->
        <path codeLine="49" d="M1025.04,198.16 C1011.23,207.41 994.18,217.03 977.19,222 C945.5,231.27 710.29,216.45 680.19,230 C603.66,264.44 545.05,349.35 518.61,393.44 " fill="none" id="model.ExtendedProject-to-java.sql.ResultSet" style="stroke:#A80036;stroke-width:1.0;stroke-dasharray:7.0,7.0;"/>
        <polygon fill="#A80036" points="516,397.83,524.0382,392.139,518.5557,393.5325,517.1622,388.05,516,397.83" style="stroke:#A80036;stroke-width:1.0;"/>
        <!--MD5=[fd07f29d0076f95f5c867431275fa5ab]
link model.ExtendedProject to java.sql.SQLException-->
        <path codeLine="50" d="M1024.61,198.21 C1010.86,207.34 993.97,216.86 977.19,222 C944.42,232.03 854.42,215.9 823.19,230 C744.87,265.34 682.03,349.46 653.23,393.32 " fill="none" id="model.ExtendedProject-to-java.sql.SQLException" style="stroke:#A80036;stroke-width:1.0;stroke-dasharray:7.0,7.0;"/>
        <polygon fill="#A80036" points="650.39,397.7,658.6557,392.3449,653.1205,393.5114,651.9539,387.9761,650.39,397.7" style="stroke:#A80036;stroke-width:1.0;"/>
        <!--MD5=[ca23664033c08b914d4a0b45e08d09fb]
link model.ExtendedProject to java.util.ArrayList-->
        <path codeLine="51" d="M1085.77,198.13 C1099.76,207.37 1117.03,216.99 1134.19,222 C1147.9,226 1381.24,219.74 1391.19,230 C1427.07,267.02 1413.9,299.72 1391.19,346 C1380.11,368.56 1358.62,386.27 1338.67,398.79 " fill="none" id="model.ExtendedProject-to-java.util.ArrayList" style="stroke:#A80036;stroke-width:1.0;stroke-dasharray:7.0,7.0;"/>
        <polygon fill="#A80036" points="1334.18,401.55,1343.9445,400.2635,1338.4446,398.9399,1339.7683,393.44,1334.18,401.55" style="stroke:#A80036;stroke-width:1.0;"/>
        <!--MD5=[f319c19585cb24f88013536e70453fa9]
link model.Project to model.DBModel-->
        <path codeLine="52" d="M1165.17,198.22 C1156.13,206.9 1144.94,216.08 1133.19,222 C1117.77,229.76 1110.09,221.3 1095.19,230 C1083.15,237.02 1072.29,247.38 1063.27,257.85 " fill="none" id="model.Project-to-model.DBModel" style="stroke:#A80036;stroke-width:1.0;"/>
        <polygon fill="none" points="1068.51,262.51,1050.69,273.96,1057.48,253.89,1068.51,262.51" style="stroke:#A80036;stroke-width:1.0;"/>
        <!--MD5=[455d154566eacb84227c103ca7dc09c0]
link model.Project to java.lang.Override-->
        <path codeLine="53" d="M1209.42,198.12 C1220.26,207.35 1233.91,216.98 1248.19,222 C1278.07,232.52 1504.14,217.36 1533.19,230 C1552.34,238.34 1568.84,255.08 1580.55,269.74 " fill="none" id="model.Project-to-java.lang.Override" style="stroke:#A80036;stroke-width:1.0;stroke-dasharray:7.0,7.0;"/>
        <polygon fill="#A80036" points="1583.72,273.82,1581.3448,264.2619,1580.6473,269.8755,1575.0336,269.1781,1583.72,273.82" style="stroke:#A80036;stroke-width:1.0;"/>
        <!--MD5=[db0ac52953a0c66e59be2a621c4a6253]
link model.Project to java.sql.ResultSet-->
        <path codeLine="54" d="M1166.91,198.1 C1157.75,207.33 1146,216.96 1133.19,222 C1098.74,235.55 835.23,218.11 800.19,230 C717.35,258.11 722.84,314.62 641.19,346 C609.07,358.34 594.89,338.48 564.19,354 C546.5,362.94 531.45,379.3 520.72,393.62 " fill="none" id="model.Project-to-java.sql.ResultSet" style="stroke:#A80036;stroke-width:1.0;stroke-dasharray:7.0,7.0;"/>
        <polygon fill="#A80036" points="517.53,397.99,526.0606,393.0676,520.4726,393.9476,519.5926,388.3596,517.53,397.99" style="stroke:#A80036;stroke-width:1.0;"/>
        <!--MD5=[8f1d9d76b9f611ddc86ecbd6e0bfde89]
link model.Project to java.sql.SQLException-->
        <path codeLine="55" d="M1166.89,198.05 C1157.73,207.27 1145.98,216.91 1133.19,222 C1107.57,232.2 909.42,216.86 885.19,230 C829.9,259.97 858.69,314.64 804.19,346 C767.08,367.35 747.34,336.69 708.19,354 C688.34,362.77 670.46,379.34 657.48,393.81 " fill="none" id="model.Project-to-java.sql.SQLException" style="stroke:#A80036;stroke-width:1.0;stroke-dasharray:7.0,7.0;"/>
        <polygon fill="#A80036" points="653.95,397.82,662.8946,393.6976,657.2496,394.0633,656.8839,388.4183,653.95,397.82" style="stroke:#A80036;stroke-width:1.0;"/>
        <!--MD5=[1e34098fc7359d37350cece6e0edc080]
link model.Project to java.util.ArrayList-->
        <path codeLine="56" d="M1209.44,198.05 C1220.29,207.28 1233.94,216.91 1248.19,222 C1270.59,230 1445.68,212.86 1462.19,230 C1497.95,267.13 1490.24,302.75 1462.19,346 C1435.15,387.67 1378.96,406.39 1339.02,414.67 " fill="none" id="model.Project-to-java.util.ArrayList" style="stroke:#A80036;stroke-width:1.0;stroke-dasharray:7.0,7.0;"/>
        <polygon fill="#A80036" points="1333.74,415.72,1343.3521,417.8665,1338.6418,414.7339,1341.7744,410.0236,1333.74,415.72" style="stroke:#A80036;stroke-width:1.0;"/>
        <!--MD5=[07874f71d19d46c1e3ae34ee8dede9fc]
link model.Project to model.DML-->
        <path codeLine="57" d="M1166.35,198.42 C1157.25,207.48 1145.7,216.88 1133.19,222 C1101.27,235.07 1008.36,213.3 978.19,230 C967.11,236.12 958.06,246.1 950.96,256.49 " fill="none" id="model.Project-to-model.DML" style="stroke:#A80036;stroke-width:1.0;"/>
        <polygon fill="none" points="956.97,260.07,940.83,273.8,944.89,253,956.97,260.07" style="stroke:#A80036;stroke-width:1.0;"/>
        <!--MD5=[b48ec6af270879e10be6819583993c02]
link model.Project to model.DQL-->
        <path codeLine="58" d="M1177.61,198.23 C1171.7,214.26 1163.68,236.02 1156.66,255.04 " fill="none" id="model.Project-to-model.DQL" style="stroke:#A80036;stroke-width:1.0;"/>
        <polygon fill="none" points="1163.21,257.51,1149.72,273.85,1150.08,252.67,1163.21,257.51" style="stroke:#A80036;stroke-width:1.0;"/>
        <!--MD5=[212a019e8be5841f340a246e40b2950e]
link model.another.EmployeeData to java.lang.Override-->
        <path codeLine="59" d="M567.83,67.09 C728.62,67.76 1179.99,72.62 1237.19,106 C1290,136.83 1258.2,191.48 1311.19,222 C1329.4,232.49 1480.22,223.42 1500.19,230 C1525.84,238.46 1551,255.64 1569.53,270.48 " fill="none" id="model.another.EmployeeData-to-java.lang.Override" style="stroke:#A80036;stroke-width:1.0;stroke-dasharray:7.0,7.0;"/>
        <polygon fill="#A80036" points="1573.62,273.8,1569.1379,265.0301,1569.7324,270.6557,1564.1069,271.2502,1573.62,273.8" style="stroke:#A80036;stroke-width:1.0;"/>
        <!--MD5=[11b5eb97e0af07d5b8047da54f362ee0]
link model.another.EmployeeData to java.util.logging.Level-->
        <path codeLine="60" d="M567.99,66.58 C754.73,65.6 1341.89,65.79 1416.19,106 C1431.9,114.51 1443.71,130.66 1451.68,144.97 " fill="none" id="model.another.EmployeeData-to-java.util.logging.Level" style="stroke:#A80036;stroke-width:1.0;stroke-dasharray:7.0,7.0;"/>
        <polygon fill="#A80036" points="1454.23,149.74,1453.5059,139.9178,1451.8689,145.3326,1446.4541,143.6956,1454.23,149.74" style="stroke:#A80036;stroke-width:1.0;"/>
        <!--MD5=[16be98367d86eb70522a14844c6a610c]
link model.another.EmployeeData to java.util.logging.Logger-->
        <path codeLine="61" d="M567.85,67.36 C737.59,68.79 1234.28,75.55 1300.19,106 C1318.73,114.57 1334.48,131.31 1345.59,145.92 " fill="none" id="model.another.EmployeeData-to-java.util.logging.Logger" style="stroke:#A80036;stroke-width:1.0;stroke-dasharray:7.0,7.0;"/>
        <polygon fill="#A80036" points="1348.6,149.97,1346.4384,140.3613,1345.616,145.958,1340.0193,145.1357,1348.6,149.97" style="stroke:#A80036;stroke-width:1.0;"/>
        <!--MD5=[c54e5ed0fd0162b5dedc48f67a58669b]
link model.another.EmployeeData to model.Employee-->
        <path codeLine="62" d="M557.49,90.09 C566.52,95.05 575.78,100.47 584.19,106 C602.86,118.29 622.46,133.75 638.02,146.73 " fill="none" id="model.another.EmployeeData-to-model.Employee" style="stroke:#A80036;stroke-width:1.0;stroke-dasharray:7.0,7.0;"/>
        <polygon fill="#A80036" points="641.89,149.97,637.5497,141.1291,638.0536,146.7634,632.4192,147.2673,641.89,149.97" style="stroke:#A80036;stroke-width:1.0;"/>
        <!--MD5=[57ea8b39eddf8205a8a53e3cac5286a6]
link model.another.EmployeeData to model.another.SqlRecord-->
        <path codeLine="63" d="M511.19,90 C511.19,101.59 511.19,116.03 511.19,129.6 " fill="none" id="model.another.EmployeeData-to-model.another.SqlRecord" style="stroke:#A80036;stroke-width:1.0;"/>
        <polygon fill="none" points="518.19,129.68,511.19,149.68,504.19,129.68,518.19,129.68" style="stroke:#A80036;stroke-width:1.0;"/>
        <!--MD5=[ae4c9b8704cc50f53eb6d917e5ddb03c]
link model.DML to java.sql.SQLException-->
        <path codeLine="64" d="M910.27,322.21 C900.58,331.35 888.3,340.87 875.19,346 C840.59,359.54 742.43,339.58 708.19,354 C688.05,362.48 670.05,379.23 657.09,393.85 " fill="none" id="model.DML-to-java.sql.SQLException" style="stroke:#A80036;stroke-width:1.0;stroke-dasharray:7.0,7.0;"/>
        <polygon fill="#A80036" points="653.57,397.91,662.4811,393.7157,656.8392,394.1268,656.4281,388.485,653.57,397.91" style="stroke:#A80036;stroke-width:1.0;"/>
        <!--MD5=[c8471915c7e88875d3f703a05b6b6025]
link model.DQL to java.sql.SQLException-->
        <path codeLine="65" d="M1125.03,322.06 C1117.19,331.29 1106.92,340.92 1095.19,346 C1055.71,363.08 748.04,337.85 708.19,354 C687.93,362.21 669.94,378.95 657,393.65 " fill="none" id="model.DQL-to-java.sql.SQLException" style="stroke:#A80036;stroke-width:1.0;stroke-dasharray:7.0,7.0;"/>
        <polygon fill="#A80036" points="653.49,397.73,662.392,393.5164,656.751,393.9398,656.3277,388.2988,653.49,397.73" style="stroke:#A80036;stroke-width:1.0;"/>
        <!--MD5=[41d15e86731f66a1e42617053e9b6ae6]
link model.DQL to java.util.ArrayList-->
        <path codeLine="66" d="M1168.35,322.17 C1177.45,329.83 1187.7,338.36 1197.19,346 C1217.68,362.51 1241.01,380.57 1259.65,394.83 " fill="none" id="model.DQL-to-java.util.ArrayList" style="stroke:#A80036;stroke-width:1.0;stroke-dasharray:7.0,7.0;"/>
        <polygon fill="#A80036" points="1263.79,398,1259.059,389.3618,1259.8142,394.9681,1254.2079,395.7232,1263.79,398" style="stroke:#A80036;stroke-width:1.0;"/>
        <!--MD5=[055d91bf9f2a574a3d3b9fe2c38a7f3a]
@startuml
abstract class model.DBModel
annotation java.lang.Override
class java.sql.Connection
class java.sql.DriverManager
class java.sql.PreparedStatement
class java.sql.ResultSet
class java.sql.SQLException
class java.util.ArrayList
class java.util.logging.Level
class java.util.logging.Logger
class model.Department
class model.EmpProj
class model.Employee
class model.ExtendedProject
class model.Project
class model.another.EmployeeData
class model.another.SqlRecord
class model.another.StaticDemo
interface model.DML
interface model.DQL
model.DBModel ..> java.sql.Connection
model.DBModel ..> java.sql.DriverManager
model.DBModel ..> java.sql.PreparedStatement
model.DBModel ..> java.sql.SQLException
model.DBModel ..> java.util.ArrayList
model.Department - -|> model.DBModel
model.Department ..> java.lang.Override
model.Department ..> java.sql.PreparedStatement
model.Department ..> java.sql.ResultSet
model.Department ..> java.sql.SQLException
model.Department ..> java.util.ArrayList
model.Department - -|> model.DML
model.EmpProj - -|> model.DBModel
model.EmpProj ..> java.lang.Override
model.EmpProj ..> java.sql.PreparedStatement
model.EmpProj ..> java.sql.ResultSet
model.EmpProj ..> java.sql.SQLException
model.EmpProj ..> java.util.ArrayList
model.EmpProj - -|> model.DML
model.Employee - -|> model.DBModel
model.Employee ..> java.lang.Override
model.Employee ..> java.sql.PreparedStatement
model.Employee ..> java.sql.ResultSet
model.Employee ..> java.sql.SQLException
model.Employee ..> java.util.ArrayList
model.Employee - -|> model.DML
model.ExtendedProject - -|> model.DBModel
model.ExtendedProject ..> java.lang.Override
model.ExtendedProject ..> java.sql.ResultSet
model.ExtendedProject ..> java.sql.SQLException
model.ExtendedProject ..> java.util.ArrayList
model.Project - -|> model.DBModel
model.Project ..> java.lang.Override
model.Project ..> java.sql.ResultSet
model.Project ..> java.sql.SQLException
model.Project ..> java.util.ArrayList
model.Project - -|> model.DML
model.Project - -|> model.DQL
model.another.EmployeeData ..> java.lang.Override
model.another.EmployeeData ..> java.util.logging.Level
model.another.EmployeeData ..> java.util.logging.Logger
model.another.EmployeeData ..> model.Employee
model.another.EmployeeData - -|> model.another.SqlRecord
model.DML ..> java.sql.SQLException
model.DQL ..> java.sql.SQLException
model.DQL ..> java.util.ArrayList
@enduml

PlantUML version 1.2021.3(Mon Mar 22 19:53:19 AST 2021)
(GPL source distribution)
Java Runtime: Java(TM) SE Runtime Environment
JVM: Java HotSpot(TM) 64-Bit Server VM
Default Encoding: UTF-8
Language: ar
Country: SY
-->
    </g>
</svg>
