<?xml version="1.0" encoding="UTF-8"?><svg xmlns="http://www.w3.org/2000/svg" xmlns:xlink="http://www.w3.org/1999/xlink" contentScriptType="application/ecmascript" contentStyleType="text/css" height="237px" preserveAspectRatio="none" style="width:1796px;height:237px;" version="1.1" viewBox="0 0 1796 237" width="1796px" zoomAndPan="magnify">
    <defs>
        <filter height="300%" id="fufusrpw8hjje" width="300%" x="-1" y="-1">
            <feGaussianBlur result="blurOut" stdDeviation="2.0"/>
            <feColorMatrix in="blurOut" result="blurOut2" type="matrix" values="0 0 0 0 0 0 0 0 0 0 0 0 0 0 0 0 0 0 .4 0"/>
            <feOffset dx="4.0" dy="4.0" in="blurOut2" result="blurOut3"/>
            <feBlend in="SourceGraphic" in2="blurOut3" mode="normal"/>
        </filter>
    </defs>
    <g>
        <!--MD5=[5d4cd377749310b66bf14896f5cd8d9b]
cluster model-->
        <polygon fill="#FFFFFF" filter="url(#fufusrpw8hjje)" points="490,6,539,6,546,29.6094,1643,29.6094,1643,230,490,230,490,6" style="stroke:#000000;stroke-width:1.5;"/>
        <line style="stroke:#000000;stroke-width:1.5;" x1="490" x2="546" y1="29.6094" y2="29.6094"/>
        <text fill="#000000" font-family="sans-serif" font-size="14" font-weight="bold" lengthAdjust="spacing" textLength="43" x="494" y="22.5332">model</text>
        <!--MD5=[aa8f7b917213fcc1c2766e2d59b49067]
cluster java.lang-->
        <polygon fill="#FFFFFF" filter="url(#fufusrpw8hjje)" points="1667,130,1736,130,1743,153.6094,1777,153.6094,1777,230,1667,230,1667,130" style="stroke:#000000;stroke-width:1.5;"/>
        <line style="stroke:#000000;stroke-width:1.5;" x1="1667" x2="1743" y1="153.6094" y2="153.6094"/>
        <text fill="#000000" font-family="sans-serif" font-size="14" font-weight="bold" lengthAdjust="spacing" textLength="63" x="1671" y="146.5332">java.lang</text>
        <!--MD5=[c4061de2b4ca09897990802c4ef9a5be]
cluster java.sql-->
        <polygon fill="#FFFFFF" filter="url(#fufusrpw8hjje)" points="16,6,76,6,83,29.6094,466,29.6094,466,230,16,230,16,6" style="stroke:#000000;stroke-width:1.5;"/>
        <line style="stroke:#000000;stroke-width:1.5;" x1="16" x2="83" y1="29.6094" y2="29.6094"/>
        <text fill="#000000" font-family="sans-serif" font-size="14" font-weight="bold" lengthAdjust="spacing" textLength="54" x="20" y="22.5332">java.sql</text>
        <!--MD5=[7db3c59d38ae5b37b484eb2df9368145]
cluster java.util-->
        <polygon fill="#FFFFFF" filter="url(#fufusrpw8hjje)" points="1667,6,1728,6,1735,29.6094,1779,29.6094,1779,106,1667,106,1667,6" style="stroke:#000000;stroke-width:1.5;"/>
        <line style="stroke:#000000;stroke-width:1.5;" x1="1667" x2="1735" y1="29.6094" y2="29.6094"/>
        <text fill="#000000" font-family="sans-serif" font-size="14" font-weight="bold" lengthAdjust="spacing" textLength="55" x="1671" y="22.5332">java.util</text>
        <!--MD5=[a25253d93e3a5fc8ed71fb50252c8caf]
class model.DBModel-->
        <rect codeLine="1" fill="#FEFECE" filter="url(#fufusrpw8hjje)" height="48" id="model.DBModel" style="stroke:#A80036;stroke-width:1.5;" width="82" x="1102" y="166"/>
        <ellipse cx="1117" cy="182" fill="#A9DCDF" rx="11" ry="11" style="stroke:#A80036;stroke-width:1.0;"/>
        <path d="M1119.1875,183.7656 L1115.0469,183.7656 L1114.625,184.7969 L1115.0469,184.7969 Q1115.6563,184.7969 1115.9219,185.0313 Q1116.1875,185.2656 1116.1875,185.6563 Q1116.1875,186.0313 1115.9219,186.2656 Q1115.6563,186.5 1115.0469,186.5 L1112.75,186.5 Q1112.1406,186.5 1111.8906,186.2656 Q1111.625,186.0313 1111.625,185.6406 Q1111.625,185.2656 1111.9063,185.0313 Q1112.1719,184.7813 1112.7969,184.7969 L1115.4688,178.1406 L1114.3594,178.1406 Q1113.75,178.1406 1113.4844,177.9063 Q1113.2188,177.6719 1113.2188,177.2813 Q1113.2188,176.9063 1113.4844,176.6719 Q1113.75,176.4375 1114.3594,176.4375 L1118.0313,176.4375 L1121.4219,184.7969 Q1122.0156,184.7969 1122.2031,184.9375 Q1122.5938,185.2031 1122.5938,185.6563 Q1122.5938,186.0313 1122.3281,186.2656 Q1122.0781,186.5 1121.4688,186.5 L1119.1719,186.5 Q1118.5625,186.5 1118.2969,186.2656 Q1118.0313,186.0313 1118.0313,185.6406 Q1118.0313,185.2656 1118.2969,185.0313 Q1118.5625,184.7969 1119.1719,184.7969 L1119.5938,184.7969 L1119.1875,183.7656 Z M1118.4688,182.0625 L1117.1094,178.6875 L1115.7344,182.0625 L1118.4688,182.0625 Z " fill="#000000"/>
        <text fill="#000000" font-family="sans-serif" font-size="12" font-style="italic" lengthAdjust="spacing" textLength="50" x="1131" y="186.9102">DBModel</text>
        <line style="stroke:#A80036;stroke-width:1.5;" x1="1103" x2="1183" y1="198" y2="198"/>
        <line style="stroke:#A80036;stroke-width:1.5;" x1="1103" x2="1183" y1="206" y2="206"/>
        <!--MD5=[48d73a968e31b84c5f365bff0606a491]
class model.Department-->
        <rect codeLine="9" fill="#FEFECE" filter="url(#fufusrpw8hjje)" height="48" id="model.Department" style="stroke:#A80036;stroke-width:1.5;" width="97" x="1094.5" y="42"/>
        <ellipse cx="1109.5" cy="58" fill="#ADD1B2" rx="11" ry="11" style="stroke:#A80036;stroke-width:1.0;"/>
        <path d="M1112.2656,53.875 Q1112.4219,53.6563 1112.6094,53.5469 Q1112.7969,53.4375 1113.0156,53.4375 Q1113.3906,53.4375 1113.625,53.7031 Q1113.8594,53.9531 1113.8594,54.5625 L1113.8594,56.0156 Q1113.8594,56.625 1113.625,56.8906 Q1113.3906,57.1563 1113.0156,57.1563 Q1112.6719,57.1563 1112.4688,56.9531 Q1112.2656,56.7656 1112.1563,56.25 Q1112.1094,55.8906 1111.9219,55.7031 Q1111.5938,55.3281 1110.9844,55.1094 Q1110.375,54.8906 1109.75,54.8906 Q1108.9844,54.8906 1108.3438,55.2188 Q1107.7188,55.5469 1107.2188,56.2969 Q1106.7344,57.0469 1106.7344,58.0781 L1106.7344,59.1719 Q1106.7344,60.4063 1107.625,61.2344 Q1108.5156,62.0469 1110.1094,62.0469 Q1111.0469,62.0469 1111.7031,61.7969 Q1112.0938,61.6406 1112.5156,61.2031 Q1112.7813,60.9375 1112.9219,60.8594 Q1113.0781,60.7813 1113.2813,60.7813 Q1113.6094,60.7813 1113.8594,61.0469 Q1114.125,61.2969 1114.125,61.6406 Q1114.125,61.9844 1113.7813,62.3906 Q1113.2813,62.9688 1112.4844,63.2969 Q1111.4063,63.75 1110.1094,63.75 Q1108.5938,63.75 1107.3906,63.125 Q1106.4063,62.625 1105.7188,61.5625 Q1105.0313,60.4844 1105.0313,59.2031 L1105.0313,58.0469 Q1105.0313,56.7188 1105.6406,55.5781 Q1106.2656,54.4219 1107.3594,53.8125 Q1108.4531,53.1875 1109.6875,53.1875 Q1110.4219,53.1875 1111.0625,53.3594 Q1111.7188,53.5156 1112.2656,53.875 Z " fill="#000000"/>
        <text fill="#000000" font-family="sans-serif" font-size="12" lengthAdjust="spacing" textLength="65" x="1123.5" y="62.9102">Department</text>
        <line style="stroke:#A80036;stroke-width:1.5;" x1="1095.5" x2="1190.5" y1="74" y2="74"/>
        <line style="stroke:#A80036;stroke-width:1.5;" x1="1095.5" x2="1190.5" y1="82" y2="82"/>
        <!--MD5=[19962f73b04a0525814e9bb2e46f3127]
class model.EmpProj-->
        <rect codeLine="10" fill="#FEFECE" filter="url(#fufusrpw8hjje)" height="48" id="model.EmpProj" style="stroke:#A80036;stroke-width:1.5;" width="80" x="979" y="42"/>
        <ellipse cx="994" cy="58" fill="#ADD1B2" rx="11" ry="11" style="stroke:#A80036;stroke-width:1.0;"/>
        <path d="M996.7656,53.875 Q996.9219,53.6563 997.1094,53.5469 Q997.2969,53.4375 997.5156,53.4375 Q997.8906,53.4375 998.125,53.7031 Q998.3594,53.9531 998.3594,54.5625 L998.3594,56.0156 Q998.3594,56.625 998.125,56.8906 Q997.8906,57.1563 997.5156,57.1563 Q997.1719,57.1563 996.9688,56.9531 Q996.7656,56.7656 996.6563,56.25 Q996.6094,55.8906 996.4219,55.7031 Q996.0938,55.3281 995.4844,55.1094 Q994.875,54.8906 994.25,54.8906 Q993.4844,54.8906 992.8438,55.2188 Q992.2188,55.5469 991.7188,56.2969 Q991.2344,57.0469 991.2344,58.0781 L991.2344,59.1719 Q991.2344,60.4063 992.125,61.2344 Q993.0156,62.0469 994.6094,62.0469 Q995.5469,62.0469 996.2031,61.7969 Q996.5938,61.6406 997.0156,61.2031 Q997.2813,60.9375 997.4219,60.8594 Q997.5781,60.7813 997.7813,60.7813 Q998.1094,60.7813 998.3594,61.0469 Q998.625,61.2969 998.625,61.6406 Q998.625,61.9844 998.2813,62.3906 Q997.7813,62.9688 996.9844,63.2969 Q995.9063,63.75 994.6094,63.75 Q993.0938,63.75 991.8906,63.125 Q990.9063,62.625 990.2188,61.5625 Q989.5313,60.4844 989.5313,59.2031 L989.5313,58.0469 Q989.5313,56.7188 990.1406,55.5781 Q990.7656,54.4219 991.8594,53.8125 Q992.9531,53.1875 994.1875,53.1875 Q994.9219,53.1875 995.5625,53.3594 Q996.2188,53.5156 996.7656,53.875 Z " fill="#000000"/>
        <text fill="#000000" font-family="sans-serif" font-size="12" lengthAdjust="spacing" textLength="48" x="1008" y="62.9102">EmpProj</text>
        <line style="stroke:#A80036;stroke-width:1.5;" x1="980" x2="1058" y1="74" y2="74"/>
        <line style="stroke:#A80036;stroke-width:1.5;" x1="980" x2="1058" y1="82" y2="82"/>
        <!--MD5=[3d7ab9dc856df746edce7a6eee0f3702]
class model.Employee-->
        <rect codeLine="11" fill="#FEFECE" filter="url(#fufusrpw8hjje)" height="48" id="model.Employee" style="stroke:#A80036;stroke-width:1.5;" width="87" x="856.5" y="42"/>
        <ellipse cx="871.5" cy="58" fill="#ADD1B2" rx="11" ry="11" style="stroke:#A80036;stroke-width:1.0;"/>
        <path d="M874.2656,53.875 Q874.4219,53.6563 874.6094,53.5469 Q874.7969,53.4375 875.0156,53.4375 Q875.3906,53.4375 875.625,53.7031 Q875.8594,53.9531 875.8594,54.5625 L875.8594,56.0156 Q875.8594,56.625 875.625,56.8906 Q875.3906,57.1563 875.0156,57.1563 Q874.6719,57.1563 874.4688,56.9531 Q874.2656,56.7656 874.1563,56.25 Q874.1094,55.8906 873.9219,55.7031 Q873.5938,55.3281 872.9844,55.1094 Q872.375,54.8906 871.75,54.8906 Q870.9844,54.8906 870.3438,55.2188 Q869.7188,55.5469 869.2188,56.2969 Q868.7344,57.0469 868.7344,58.0781 L868.7344,59.1719 Q868.7344,60.4063 869.625,61.2344 Q870.5156,62.0469 872.1094,62.0469 Q873.0469,62.0469 873.7031,61.7969 Q874.0938,61.6406 874.5156,61.2031 Q874.7813,60.9375 874.9219,60.8594 Q875.0781,60.7813 875.2813,60.7813 Q875.6094,60.7813 875.8594,61.0469 Q876.125,61.2969 876.125,61.6406 Q876.125,61.9844 875.7813,62.3906 Q875.2813,62.9688 874.4844,63.2969 Q873.4063,63.75 872.1094,63.75 Q870.5938,63.75 869.3906,63.125 Q868.4063,62.625 867.7188,61.5625 Q867.0313,60.4844 867.0313,59.2031 L867.0313,58.0469 Q867.0313,56.7188 867.6406,55.5781 Q868.2656,54.4219 869.3594,53.8125 Q870.4531,53.1875 871.6875,53.1875 Q872.4219,53.1875 873.0625,53.3594 Q873.7188,53.5156 874.2656,53.875 Z " fill="#000000"/>
        <text fill="#000000" font-family="sans-serif" font-size="12" lengthAdjust="spacing" textLength="55" x="885.5" y="62.9102">Employee</text>
        <line style="stroke:#A80036;stroke-width:1.5;" x1="857.5" x2="942.5" y1="74" y2="74"/>
        <line style="stroke:#A80036;stroke-width:1.5;" x1="857.5" x2="942.5" y1="82" y2="82"/>
        <!--MD5=[56f168675b5bccf459f3b283d13a28bd]
class model.ExtendedEmpProj-->
        <rect codeLine="12" fill="#FEFECE" filter="url(#fufusrpw8hjje)" height="48" id="model.ExtendedEmpProj" style="stroke:#A80036;stroke-width:1.5;" width="131" x="690.5" y="42"/>
        <ellipse cx="705.5" cy="58" fill="#ADD1B2" rx="11" ry="11" style="stroke:#A80036;stroke-width:1.0;"/>
        <path d="M708.2656,53.875 Q708.4219,53.6563 708.6094,53.5469 Q708.7969,53.4375 709.0156,53.4375 Q709.3906,53.4375 709.625,53.7031 Q709.8594,53.9531 709.8594,54.5625 L709.8594,56.0156 Q709.8594,56.625 709.625,56.8906 Q709.3906,57.1563 709.0156,57.1563 Q708.6719,57.1563 708.4688,56.9531 Q708.2656,56.7656 708.1563,56.25 Q708.1094,55.8906 707.9219,55.7031 Q707.5938,55.3281 706.9844,55.1094 Q706.375,54.8906 705.75,54.8906 Q704.9844,54.8906 704.3438,55.2188 Q703.7188,55.5469 703.2188,56.2969 Q702.7344,57.0469 702.7344,58.0781 L702.7344,59.1719 Q702.7344,60.4063 703.625,61.2344 Q704.5156,62.0469 706.1094,62.0469 Q707.0469,62.0469 707.7031,61.7969 Q708.0938,61.6406 708.5156,61.2031 Q708.7813,60.9375 708.9219,60.8594 Q709.0781,60.7813 709.2813,60.7813 Q709.6094,60.7813 709.8594,61.0469 Q710.125,61.2969 710.125,61.6406 Q710.125,61.9844 709.7813,62.3906 Q709.2813,62.9688 708.4844,63.2969 Q707.4063,63.75 706.1094,63.75 Q704.5938,63.75 703.3906,63.125 Q702.4063,62.625 701.7188,61.5625 Q701.0313,60.4844 701.0313,59.2031 L701.0313,58.0469 Q701.0313,56.7188 701.6406,55.5781 Q702.2656,54.4219 703.3594,53.8125 Q704.4531,53.1875 705.6875,53.1875 Q706.4219,53.1875 707.0625,53.3594 Q707.7188,53.5156 708.2656,53.875 Z " fill="#000000"/>
        <text fill="#000000" font-family="sans-serif" font-size="12" lengthAdjust="spacing" textLength="99" x="719.5" y="62.9102">ExtendedEmpProj</text>
        <line style="stroke:#A80036;stroke-width:1.5;" x1="691.5" x2="820.5" y1="74" y2="74"/>
        <line style="stroke:#A80036;stroke-width:1.5;" x1="691.5" x2="820.5" y1="82" y2="82"/>
        <!--MD5=[29346aa3914746459773c057fcf9f0ea]
class model.ExtendedEmployee-->
        <rect codeLine="13" fill="#FEFECE" filter="url(#fufusrpw8hjje)" height="48" id="model.ExtendedEmployee" style="stroke:#A80036;stroke-width:1.5;" width="138" x="1489" y="42"/>
        <ellipse cx="1504" cy="58" fill="#ADD1B2" rx="11" ry="11" style="stroke:#A80036;stroke-width:1.0;"/>
        <path d="M1506.7656,53.875 Q1506.9219,53.6563 1507.1094,53.5469 Q1507.2969,53.4375 1507.5156,53.4375 Q1507.8906,53.4375 1508.125,53.7031 Q1508.3594,53.9531 1508.3594,54.5625 L1508.3594,56.0156 Q1508.3594,56.625 1508.125,56.8906 Q1507.8906,57.1563 1507.5156,57.1563 Q1507.1719,57.1563 1506.9688,56.9531 Q1506.7656,56.7656 1506.6563,56.25 Q1506.6094,55.8906 1506.4219,55.7031 Q1506.0938,55.3281 1505.4844,55.1094 Q1504.875,54.8906 1504.25,54.8906 Q1503.4844,54.8906 1502.8438,55.2188 Q1502.2188,55.5469 1501.7188,56.2969 Q1501.2344,57.0469 1501.2344,58.0781 L1501.2344,59.1719 Q1501.2344,60.4063 1502.125,61.2344 Q1503.0156,62.0469 1504.6094,62.0469 Q1505.5469,62.0469 1506.2031,61.7969 Q1506.5938,61.6406 1507.0156,61.2031 Q1507.2813,60.9375 1507.4219,60.8594 Q1507.5781,60.7813 1507.7813,60.7813 Q1508.1094,60.7813 1508.3594,61.0469 Q1508.625,61.2969 1508.625,61.6406 Q1508.625,61.9844 1508.2813,62.3906 Q1507.7813,62.9688 1506.9844,63.2969 Q1505.9063,63.75 1504.6094,63.75 Q1503.0938,63.75 1501.8906,63.125 Q1500.9063,62.625 1500.2188,61.5625 Q1499.5313,60.4844 1499.5313,59.2031 L1499.5313,58.0469 Q1499.5313,56.7188 1500.1406,55.5781 Q1500.7656,54.4219 1501.8594,53.8125 Q1502.9531,53.1875 1504.1875,53.1875 Q1504.9219,53.1875 1505.5625,53.3594 Q1506.2188,53.5156 1506.7656,53.875 Z " fill="#000000"/>
        <text fill="#000000" font-family="sans-serif" font-size="12" lengthAdjust="spacing" textLength="106" x="1518" y="62.9102">ExtendedEmployee</text>
        <line style="stroke:#A80036;stroke-width:1.5;" x1="1490" x2="1626" y1="74" y2="74"/>
        <line style="stroke:#A80036;stroke-width:1.5;" x1="1490" x2="1626" y1="82" y2="82"/>
        <!--MD5=[72f362683e5d6f8a437ff05829f7525d]
class model.ExtendedProject-->
        <rect codeLine="14" fill="#FEFECE" filter="url(#fufusrpw8hjje)" height="48" id="model.ExtendedProject" style="stroke:#A80036;stroke-width:1.5;" width="121" x="1332.5" y="42"/>
        <ellipse cx="1347.5" cy="58" fill="#ADD1B2" rx="11" ry="11" style="stroke:#A80036;stroke-width:1.0;"/>
        <path d="M1350.2656,53.875 Q1350.4219,53.6563 1350.6094,53.5469 Q1350.7969,53.4375 1351.0156,53.4375 Q1351.3906,53.4375 1351.625,53.7031 Q1351.8594,53.9531 1351.8594,54.5625 L1351.8594,56.0156 Q1351.8594,56.625 1351.625,56.8906 Q1351.3906,57.1563 1351.0156,57.1563 Q1350.6719,57.1563 1350.4688,56.9531 Q1350.2656,56.7656 1350.1563,56.25 Q1350.1094,55.8906 1349.9219,55.7031 Q1349.5938,55.3281 1348.9844,55.1094 Q1348.375,54.8906 1347.75,54.8906 Q1346.9844,54.8906 1346.3438,55.2188 Q1345.7188,55.5469 1345.2188,56.2969 Q1344.7344,57.0469 1344.7344,58.0781 L1344.7344,59.1719 Q1344.7344,60.4063 1345.625,61.2344 Q1346.5156,62.0469 1348.1094,62.0469 Q1349.0469,62.0469 1349.7031,61.7969 Q1350.0938,61.6406 1350.5156,61.2031 Q1350.7813,60.9375 1350.9219,60.8594 Q1351.0781,60.7813 1351.2813,60.7813 Q1351.6094,60.7813 1351.8594,61.0469 Q1352.125,61.2969 1352.125,61.6406 Q1352.125,61.9844 1351.7813,62.3906 Q1351.2813,62.9688 1350.4844,63.2969 Q1349.4063,63.75 1348.1094,63.75 Q1346.5938,63.75 1345.3906,63.125 Q1344.4063,62.625 1343.7188,61.5625 Q1343.0313,60.4844 1343.0313,59.2031 L1343.0313,58.0469 Q1343.0313,56.7188 1343.6406,55.5781 Q1344.2656,54.4219 1345.3594,53.8125 Q1346.4531,53.1875 1347.6875,53.1875 Q1348.4219,53.1875 1349.0625,53.3594 Q1349.7188,53.5156 1350.2656,53.875 Z " fill="#000000"/>
        <text fill="#000000" font-family="sans-serif" font-size="12" lengthAdjust="spacing" textLength="89" x="1361.5" y="62.9102">ExtendedProject</text>
        <line style="stroke:#A80036;stroke-width:1.5;" x1="1333.5" x2="1452.5" y1="74" y2="74"/>
        <line style="stroke:#A80036;stroke-width:1.5;" x1="1333.5" x2="1452.5" y1="82" y2="82"/>
        <!--MD5=[2edc5ac83730d127ccbef4fe1dacd635]
class model.Project-->
        <rect codeLine="15" fill="#FEFECE" filter="url(#fufusrpw8hjje)" height="48" id="model.Project" style="stroke:#A80036;stroke-width:1.5;" width="70" x="1227" y="42"/>
        <ellipse cx="1242" cy="58" fill="#ADD1B2" rx="11" ry="11" style="stroke:#A80036;stroke-width:1.0;"/>
        <path d="M1244.7656,53.875 Q1244.9219,53.6563 1245.1094,53.5469 Q1245.2969,53.4375 1245.5156,53.4375 Q1245.8906,53.4375 1246.125,53.7031 Q1246.3594,53.9531 1246.3594,54.5625 L1246.3594,56.0156 Q1246.3594,56.625 1246.125,56.8906 Q1245.8906,57.1563 1245.5156,57.1563 Q1245.1719,57.1563 1244.9688,56.9531 Q1244.7656,56.7656 1244.6563,56.25 Q1244.6094,55.8906 1244.4219,55.7031 Q1244.0938,55.3281 1243.4844,55.1094 Q1242.875,54.8906 1242.25,54.8906 Q1241.4844,54.8906 1240.8438,55.2188 Q1240.2188,55.5469 1239.7188,56.2969 Q1239.2344,57.0469 1239.2344,58.0781 L1239.2344,59.1719 Q1239.2344,60.4063 1240.125,61.2344 Q1241.0156,62.0469 1242.6094,62.0469 Q1243.5469,62.0469 1244.2031,61.7969 Q1244.5938,61.6406 1245.0156,61.2031 Q1245.2813,60.9375 1245.4219,60.8594 Q1245.5781,60.7813 1245.7813,60.7813 Q1246.1094,60.7813 1246.3594,61.0469 Q1246.625,61.2969 1246.625,61.6406 Q1246.625,61.9844 1246.2813,62.3906 Q1245.7813,62.9688 1244.9844,63.2969 Q1243.9063,63.75 1242.6094,63.75 Q1241.0938,63.75 1239.8906,63.125 Q1238.9063,62.625 1238.2188,61.5625 Q1237.5313,60.4844 1237.5313,59.2031 L1237.5313,58.0469 Q1237.5313,56.7188 1238.1406,55.5781 Q1238.7656,54.4219 1239.8594,53.8125 Q1240.9531,53.1875 1242.1875,53.1875 Q1242.9219,53.1875 1243.5625,53.3594 Q1244.2188,53.5156 1244.7656,53.875 Z " fill="#000000"/>
        <text fill="#000000" font-family="sans-serif" font-size="12" lengthAdjust="spacing" textLength="38" x="1256" y="62.9102">Project</text>
        <line style="stroke:#A80036;stroke-width:1.5;" x1="1228" x2="1296" y1="74" y2="74"/>
        <line style="stroke:#A80036;stroke-width:1.5;" x1="1228" x2="1296" y1="82" y2="82"/>
        <!--MD5=[9ab53d3cf178eb8cc8b1d0c4b184940d]
class model.DML-->
        <rect codeLine="16" fill="#FEFECE" filter="url(#fufusrpw8hjje)" height="48" id="model.DML" style="stroke:#A80036;stroke-width:1.5;" width="57" x="598.5" y="42"/>
        <ellipse cx="613.5" cy="58" fill="#B4A7E5" rx="11" ry="11" style="stroke:#A80036;stroke-width:1.0;"/>
        <path d="M614.4531,54.6406 L614.4531,61.2969 L616.1719,61.2969 Q616.7813,61.2969 617.0469,61.5313 Q617.3125,61.7656 617.3125,62.1563 Q617.3125,62.5313 617.0469,62.7656 Q616.7813,63 616.1719,63 L611.0313,63 Q610.4219,63 610.1563,62.7656 Q609.8906,62.5313 609.8906,62.1406 Q609.8906,61.7656 610.1563,61.5313 Q610.4219,61.2969 611.0313,61.2969 L612.75,61.2969 L612.75,54.6406 L611.0313,54.6406 Q610.4219,54.6406 610.1563,54.4063 Q609.8906,54.1719 609.8906,53.7813 Q609.8906,53.4063 610.1563,53.1719 Q610.4219,52.9375 611.0313,52.9375 L616.1719,52.9375 Q616.7813,52.9375 617.0469,53.1719 Q617.3125,53.4063 617.3125,53.7813 Q617.3125,54.1719 617.0469,54.4063 Q616.7813,54.6406 616.1719,54.6406 L614.4531,54.6406 Z " fill="#000000"/>
        <text fill="#000000" font-family="sans-serif" font-size="12" font-style="italic" lengthAdjust="spacing" textLength="25" x="627.5" y="62.9102">DML</text>
        <line style="stroke:#A80036;stroke-width:1.5;" x1="599.5" x2="654.5" y1="74" y2="74"/>
        <line style="stroke:#A80036;stroke-width:1.5;" x1="599.5" x2="654.5" y1="82" y2="82"/>
        <!--MD5=[9a79a49df17979add30c77c4e8ee5587]
class model.DQL-->
        <rect codeLine="17" fill="#FEFECE" filter="url(#fufusrpw8hjje)" height="48" id="model.DQL" style="stroke:#A80036;stroke-width:1.5;" width="57" x="506.5" y="42"/>
        <ellipse cx="521.5" cy="58" fill="#B4A7E5" rx="11" ry="11" style="stroke:#A80036;stroke-width:1.0;"/>
        <path d="M522.4531,54.6406 L522.4531,61.2969 L524.1719,61.2969 Q524.7813,61.2969 525.0469,61.5313 Q525.3125,61.7656 525.3125,62.1563 Q525.3125,62.5313 525.0469,62.7656 Q524.7813,63 524.1719,63 L519.0313,63 Q518.4219,63 518.1563,62.7656 Q517.8906,62.5313 517.8906,62.1406 Q517.8906,61.7656 518.1563,61.5313 Q518.4219,61.2969 519.0313,61.2969 L520.75,61.2969 L520.75,54.6406 L519.0313,54.6406 Q518.4219,54.6406 518.1563,54.4063 Q517.8906,54.1719 517.8906,53.7813 Q517.8906,53.4063 518.1563,53.1719 Q518.4219,52.9375 519.0313,52.9375 L524.1719,52.9375 Q524.7813,52.9375 525.0469,53.1719 Q525.3125,53.4063 525.3125,53.7813 Q525.3125,54.1719 525.0469,54.4063 Q524.7813,54.6406 524.1719,54.6406 L522.4531,54.6406 Z " fill="#000000"/>
        <text fill="#000000" font-family="sans-serif" font-size="12" font-style="italic" lengthAdjust="spacing" textLength="25" x="535.5" y="62.9102">DQL</text>
        <line style="stroke:#A80036;stroke-width:1.5;" x1="507.5" x2="562.5" y1="74" y2="74"/>
        <line style="stroke:#A80036;stroke-width:1.5;" x1="507.5" x2="562.5" y1="82" y2="82"/>
        <!--MD5=[3c78a2fa643d9223b1f8ad930e883961]
class java.lang.Override-->
        <rect codeLine="2" fill="#FEFECE" filter="url(#fufusrpw8hjje)" height="48" id="java.lang.Override" style="stroke:#A80036;stroke-width:1.5;" width="78" x="1683" y="166"/>
        <ellipse cx="1698" cy="182" fill="#E3664A" rx="11" ry="11" style="stroke:#A80036;stroke-width:1.0;"/>
        <path d="M1700.3438,179.5781 L1700.3438,179.0625 Q1700.3438,178.2344 1699.8594,177.7344 Q1699.3906,177.2344 1698.6406,177.2344 Q1698.0469,177.2344 1697.5156,177.6406 Q1696.9844,178.0313 1696.7188,178.6563 Q1696.25,179.75 1696.25,180.8594 L1696.25,183.375 Q1696.25,185.2969 1697.1094,186.4219 Q1697.6719,187.1719 1698.6875,187.1719 Q1699.2344,187.1719 1699.6719,187.0313 Q1700.125,186.8906 1700.375,186.6406 Q1700.625,186.3906 1700.8438,186.3906 Q1701.1094,186.3906 1701.2969,186.5781 Q1701.4844,186.7656 1701.4844,187.0313 Q1701.4844,187.4531 1700.9063,187.8438 Q1700.0781,188.4063 1698.6406,188.4063 Q1697.5469,188.4063 1696.8281,187.9063 Q1695.9063,187.2656 1695.4531,186 Q1695,184.7344 1695,183.5 L1695,180.7656 Q1695,178.7813 1695.9844,177.3906 Q1696.9688,175.9844 1698.6094,175.9844 Q1699.3594,175.9844 1700,176.2969 Q1700.6563,176.5938 1701.125,177.3594 Q1701.5938,178.125 1701.5938,179.0625 L1701.5938,183.5938 Q1701.9531,183.7656 1701.9531,184.1563 Q1701.9531,184.4375 1701.75,184.625 Q1701.5625,184.7969 1701.0938,184.7969 L1700.3438,184.7969 L1700.3438,184.75 Q1699.9531,184.8125 1699.7656,184.8125 Q1698.7656,184.8125 1698.0156,184.0781 Q1697.2813,183.3281 1697.2813,182.3281 Q1697.2813,181.2656 1698.0938,180.4688 Q1698.9219,179.6719 1700.3438,179.5781 Z M1700.3438,180.8594 Q1699.4531,180.9531 1698.9844,181.375 Q1698.5313,181.7969 1698.5313,182.3438 Q1698.5313,182.8281 1698.9063,183.1719 Q1699.2969,183.5156 1699.9375,183.5156 Q1700.0625,183.5156 1700.3438,183.5 L1700.3438,180.8594 Z " fill="#000000"/>
        <text fill="#000000" font-family="sans-serif" font-size="12" lengthAdjust="spacing" textLength="46" x="1712" y="186.9102">Override</text>
        <line style="stroke:#A80036;stroke-width:1.5;" x1="1684" x2="1760" y1="198" y2="198"/>
        <line style="stroke:#A80036;stroke-width:1.5;" x1="1684" x2="1760" y1="206" y2="206"/>
        <!--MD5=[5fcb86e028869ab1088d78730f70e338]
class java.sql.Connection-->
        <rect codeLine="3" fill="#FEFECE" filter="url(#fufusrpw8hjje)" height="48" id="java.sql.Connection" style="stroke:#A80036;stroke-width:1.5;" width="95" x="32.5" y="42"/>
        <ellipse cx="47.5" cy="58" fill="#ADD1B2" rx="11" ry="11" style="stroke:#A80036;stroke-width:1.0;"/>
        <path d="M50.2656,53.875 Q50.4219,53.6563 50.6094,53.5469 Q50.7969,53.4375 51.0156,53.4375 Q51.3906,53.4375 51.625,53.7031 Q51.8594,53.9531 51.8594,54.5625 L51.8594,56.0156 Q51.8594,56.625 51.625,56.8906 Q51.3906,57.1563 51.0156,57.1563 Q50.6719,57.1563 50.4688,56.9531 Q50.2656,56.7656 50.1563,56.25 Q50.1094,55.8906 49.9219,55.7031 Q49.5938,55.3281 48.9844,55.1094 Q48.375,54.8906 47.75,54.8906 Q46.9844,54.8906 46.3438,55.2188 Q45.7188,55.5469 45.2188,56.2969 Q44.7344,57.0469 44.7344,58.0781 L44.7344,59.1719 Q44.7344,60.4063 45.625,61.2344 Q46.5156,62.0469 48.1094,62.0469 Q49.0469,62.0469 49.7031,61.7969 Q50.0938,61.6406 50.5156,61.2031 Q50.7813,60.9375 50.9219,60.8594 Q51.0781,60.7813 51.2813,60.7813 Q51.6094,60.7813 51.8594,61.0469 Q52.125,61.2969 52.125,61.6406 Q52.125,61.9844 51.7813,62.3906 Q51.2813,62.9688 50.4844,63.2969 Q49.4063,63.75 48.1094,63.75 Q46.5938,63.75 45.3906,63.125 Q44.4063,62.625 43.7188,61.5625 Q43.0313,60.4844 43.0313,59.2031 L43.0313,58.0469 Q43.0313,56.7188 43.6406,55.5781 Q44.2656,54.4219 45.3594,53.8125 Q46.4531,53.1875 47.6875,53.1875 Q48.4219,53.1875 49.0625,53.3594 Q49.7188,53.5156 50.2656,53.875 Z " fill="#000000"/>
        <text fill="#000000" font-family="sans-serif" font-size="12" lengthAdjust="spacing" textLength="63" x="61.5" y="62.9102">Connection</text>
        <line style="stroke:#A80036;stroke-width:1.5;" x1="33.5" x2="126.5" y1="74" y2="74"/>
        <line style="stroke:#A80036;stroke-width:1.5;" x1="33.5" x2="126.5" y1="82" y2="82"/>
        <!--MD5=[0ce247d6f6b810636174dc78f3dfd920]
class java.sql.DriverManager-->
        <rect codeLine="4" fill="#FEFECE" filter="url(#fufusrpw8hjje)" height="48" id="java.sql.DriverManager" style="stroke:#A80036;stroke-width:1.5;" width="112" x="163" y="42"/>
        <ellipse cx="178" cy="58" fill="#ADD1B2" rx="11" ry="11" style="stroke:#A80036;stroke-width:1.0;"/>
        <path d="M180.7656,53.875 Q180.9219,53.6563 181.1094,53.5469 Q181.2969,53.4375 181.5156,53.4375 Q181.8906,53.4375 182.125,53.7031 Q182.3594,53.9531 182.3594,54.5625 L182.3594,56.0156 Q182.3594,56.625 182.125,56.8906 Q181.8906,57.1563 181.5156,57.1563 Q181.1719,57.1563 180.9688,56.9531 Q180.7656,56.7656 180.6563,56.25 Q180.6094,55.8906 180.4219,55.7031 Q180.0938,55.3281 179.4844,55.1094 Q178.875,54.8906 178.25,54.8906 Q177.4844,54.8906 176.8438,55.2188 Q176.2188,55.5469 175.7188,56.2969 Q175.2344,57.0469 175.2344,58.0781 L175.2344,59.1719 Q175.2344,60.4063 176.125,61.2344 Q177.0156,62.0469 178.6094,62.0469 Q179.5469,62.0469 180.2031,61.7969 Q180.5938,61.6406 181.0156,61.2031 Q181.2813,60.9375 181.4219,60.8594 Q181.5781,60.7813 181.7813,60.7813 Q182.1094,60.7813 182.3594,61.0469 Q182.625,61.2969 182.625,61.6406 Q182.625,61.9844 182.2813,62.3906 Q181.7813,62.9688 180.9844,63.2969 Q179.9063,63.75 178.6094,63.75 Q177.0938,63.75 175.8906,63.125 Q174.9063,62.625 174.2188,61.5625 Q173.5313,60.4844 173.5313,59.2031 L173.5313,58.0469 Q173.5313,56.7188 174.1406,55.5781 Q174.7656,54.4219 175.8594,53.8125 Q176.9531,53.1875 178.1875,53.1875 Q178.9219,53.1875 179.5625,53.3594 Q180.2188,53.5156 180.7656,53.875 Z " fill="#000000"/>
        <text fill="#000000" font-family="sans-serif" font-size="12" lengthAdjust="spacing" textLength="80" x="192" y="62.9102">DriverManager</text>
        <line style="stroke:#A80036;stroke-width:1.5;" x1="164" x2="274" y1="74" y2="74"/>
        <line style="stroke:#A80036;stroke-width:1.5;" x1="164" x2="274" y1="82" y2="82"/>
        <!--MD5=[07a4118b6af040118095243d4f16abbf]
class java.sql.PreparedStatement-->
        <rect codeLine="5" fill="#FEFECE" filter="url(#fufusrpw8hjje)" height="48" id="java.sql.PreparedStatement" style="stroke:#A80036;stroke-width:1.5;" width="139" x="310.5" y="42"/>
        <ellipse cx="325.5" cy="58" fill="#ADD1B2" rx="11" ry="11" style="stroke:#A80036;stroke-width:1.0;"/>
        <path d="M328.2656,53.875 Q328.4219,53.6563 328.6094,53.5469 Q328.7969,53.4375 329.0156,53.4375 Q329.3906,53.4375 329.625,53.7031 Q329.8594,53.9531 329.8594,54.5625 L329.8594,56.0156 Q329.8594,56.625 329.625,56.8906 Q329.3906,57.1563 329.0156,57.1563 Q328.6719,57.1563 328.4688,56.9531 Q328.2656,56.7656 328.1563,56.25 Q328.1094,55.8906 327.9219,55.7031 Q327.5938,55.3281 326.9844,55.1094 Q326.375,54.8906 325.75,54.8906 Q324.9844,54.8906 324.3438,55.2188 Q323.7188,55.5469 323.2188,56.2969 Q322.7344,57.0469 322.7344,58.0781 L322.7344,59.1719 Q322.7344,60.4063 323.625,61.2344 Q324.5156,62.0469 326.1094,62.0469 Q327.0469,62.0469 327.7031,61.7969 Q328.0938,61.6406 328.5156,61.2031 Q328.7813,60.9375 328.9219,60.8594 Q329.0781,60.7813 329.2813,60.7813 Q329.6094,60.7813 329.8594,61.0469 Q330.125,61.2969 330.125,61.6406 Q330.125,61.9844 329.7813,62.3906 Q329.2813,62.9688 328.4844,63.2969 Q327.4063,63.75 326.1094,63.75 Q324.5938,63.75 323.3906,63.125 Q322.4063,62.625 321.7188,61.5625 Q321.0313,60.4844 321.0313,59.2031 L321.0313,58.0469 Q321.0313,56.7188 321.6406,55.5781 Q322.2656,54.4219 323.3594,53.8125 Q324.4531,53.1875 325.6875,53.1875 Q326.4219,53.1875 327.0625,53.3594 Q327.7188,53.5156 328.2656,53.875 Z " fill="#000000"/>
        <text fill="#000000" font-family="sans-serif" font-size="12" lengthAdjust="spacing" textLength="107" x="339.5" y="62.9102">PreparedStatement</text>
        <line style="stroke:#A80036;stroke-width:1.5;" x1="311.5" x2="448.5" y1="74" y2="74"/>
        <line style="stroke:#A80036;stroke-width:1.5;" x1="311.5" x2="448.5" y1="82" y2="82"/>
        <!--MD5=[ca3892dc8b0229ebf88950402efb7cd1]
class java.sql.ResultSet-->
        <rect codeLine="6" fill="#FEFECE" filter="url(#fufusrpw8hjje)" height="48" id="java.sql.ResultSet" style="stroke:#A80036;stroke-width:1.5;" width="86" x="37" y="166"/>
        <ellipse cx="52" cy="182" fill="#ADD1B2" rx="11" ry="11" style="stroke:#A80036;stroke-width:1.0;"/>
        <path d="M54.7656,177.875 Q54.9219,177.6563 55.1094,177.5469 Q55.2969,177.4375 55.5156,177.4375 Q55.8906,177.4375 56.125,177.7031 Q56.3594,177.9531 56.3594,178.5625 L56.3594,180.0156 Q56.3594,180.625 56.125,180.8906 Q55.8906,181.1563 55.5156,181.1563 Q55.1719,181.1563 54.9688,180.9531 Q54.7656,180.7656 54.6563,180.25 Q54.6094,179.8906 54.4219,179.7031 Q54.0938,179.3281 53.4844,179.1094 Q52.875,178.8906 52.25,178.8906 Q51.4844,178.8906 50.8438,179.2188 Q50.2188,179.5469 49.7188,180.2969 Q49.2344,181.0469 49.2344,182.0781 L49.2344,183.1719 Q49.2344,184.4063 50.125,185.2344 Q51.0156,186.0469 52.6094,186.0469 Q53.5469,186.0469 54.2031,185.7969 Q54.5938,185.6406 55.0156,185.2031 Q55.2813,184.9375 55.4219,184.8594 Q55.5781,184.7813 55.7813,184.7813 Q56.1094,184.7813 56.3594,185.0469 Q56.625,185.2969 56.625,185.6406 Q56.625,185.9844 56.2813,186.3906 Q55.7813,186.9688 54.9844,187.2969 Q53.9063,187.75 52.6094,187.75 Q51.0938,187.75 49.8906,187.125 Q48.9063,186.625 48.2188,185.5625 Q47.5313,184.4844 47.5313,183.2031 L47.5313,182.0469 Q47.5313,180.7188 48.1406,179.5781 Q48.7656,178.4219 49.8594,177.8125 Q50.9531,177.1875 52.1875,177.1875 Q52.9219,177.1875 53.5625,177.3594 Q54.2188,177.5156 54.7656,177.875 Z " fill="#000000"/>
        <text fill="#000000" font-family="sans-serif" font-size="12" lengthAdjust="spacing" textLength="54" x="66" y="186.9102">ResultSet</text>
        <line style="stroke:#A80036;stroke-width:1.5;" x1="38" x2="122" y1="198" y2="198"/>
        <line style="stroke:#A80036;stroke-width:1.5;" x1="38" x2="122" y1="206" y2="206"/>
        <!--MD5=[0dc616b5ef98f05494a35399b7990cbf]
class java.sql.SQLException-->
        <rect codeLine="7" fill="#FEFECE" filter="url(#fufusrpw8hjje)" height="48" id="java.sql.SQLException" style="stroke:#A80036;stroke-width:1.5;" width="109" x="158.5" y="166"/>
        <ellipse cx="173.5" cy="182" fill="#ADD1B2" rx="11" ry="11" style="stroke:#A80036;stroke-width:1.0;"/>
        <path d="M176.2656,177.875 Q176.4219,177.6563 176.6094,177.5469 Q176.7969,177.4375 177.0156,177.4375 Q177.3906,177.4375 177.625,177.7031 Q177.8594,177.9531 177.8594,178.5625 L177.8594,180.0156 Q177.8594,180.625 177.625,180.8906 Q177.3906,181.1563 177.0156,181.1563 Q176.6719,181.1563 176.4688,180.9531 Q176.2656,180.7656 176.1563,180.25 Q176.1094,179.8906 175.9219,179.7031 Q175.5938,179.3281 174.9844,179.1094 Q174.375,178.8906 173.75,178.8906 Q172.9844,178.8906 172.3438,179.2188 Q171.7188,179.5469 171.2188,180.2969 Q170.7344,181.0469 170.7344,182.0781 L170.7344,183.1719 Q170.7344,184.4063 171.625,185.2344 Q172.5156,186.0469 174.1094,186.0469 Q175.0469,186.0469 175.7031,185.7969 Q176.0938,185.6406 176.5156,185.2031 Q176.7813,184.9375 176.9219,184.8594 Q177.0781,184.7813 177.2813,184.7813 Q177.6094,184.7813 177.8594,185.0469 Q178.125,185.2969 178.125,185.6406 Q178.125,185.9844 177.7813,186.3906 Q177.2813,186.9688 176.4844,187.2969 Q175.4063,187.75 174.1094,187.75 Q172.5938,187.75 171.3906,187.125 Q170.4063,186.625 169.7188,185.5625 Q169.0313,184.4844 169.0313,183.2031 L169.0313,182.0469 Q169.0313,180.7188 169.6406,179.5781 Q170.2656,178.4219 171.3594,177.8125 Q172.4531,177.1875 173.6875,177.1875 Q174.4219,177.1875 175.0625,177.3594 Q175.7188,177.5156 176.2656,177.875 Z " fill="#000000"/>
        <text fill="#000000" font-family="sans-serif" font-size="12" lengthAdjust="spacing" textLength="77" x="187.5" y="186.9102">SQLException</text>
        <line style="stroke:#A80036;stroke-width:1.5;" x1="159.5" x2="266.5" y1="198" y2="198"/>
        <line style="stroke:#A80036;stroke-width:1.5;" x1="159.5" x2="266.5" y1="206" y2="206"/>
        <!--MD5=[8479184e23c2bec09445fccfd361f5d2]
class java.util.ArrayList-->
        <rect codeLine="8" fill="#FEFECE" filter="url(#fufusrpw8hjje)" height="48" id="java.util.ArrayList" style="stroke:#A80036;stroke-width:1.5;" width="79" x="1683.5" y="42"/>
        <ellipse cx="1698.5" cy="58" fill="#ADD1B2" rx="11" ry="11" style="stroke:#A80036;stroke-width:1.0;"/>
        <path d="M1701.2656,53.875 Q1701.4219,53.6563 1701.6094,53.5469 Q1701.7969,53.4375 1702.0156,53.4375 Q1702.3906,53.4375 1702.625,53.7031 Q1702.8594,53.9531 1702.8594,54.5625 L1702.8594,56.0156 Q1702.8594,56.625 1702.625,56.8906 Q1702.3906,57.1563 1702.0156,57.1563 Q1701.6719,57.1563 1701.4688,56.9531 Q1701.2656,56.7656 1701.1563,56.25 Q1701.1094,55.8906 1700.9219,55.7031 Q1700.5938,55.3281 1699.9844,55.1094 Q1699.375,54.8906 1698.75,54.8906 Q1697.9844,54.8906 1697.3438,55.2188 Q1696.7188,55.5469 1696.2188,56.2969 Q1695.7344,57.0469 1695.7344,58.0781 L1695.7344,59.1719 Q1695.7344,60.4063 1696.625,61.2344 Q1697.5156,62.0469 1699.1094,62.0469 Q1700.0469,62.0469 1700.7031,61.7969 Q1701.0938,61.6406 1701.5156,61.2031 Q1701.7813,60.9375 1701.9219,60.8594 Q1702.0781,60.7813 1702.2813,60.7813 Q1702.6094,60.7813 1702.8594,61.0469 Q1703.125,61.2969 1703.125,61.6406 Q1703.125,61.9844 1702.7813,62.3906 Q1702.2813,62.9688 1701.4844,63.2969 Q1700.4063,63.75 1699.1094,63.75 Q1697.5938,63.75 1696.3906,63.125 Q1695.4063,62.625 1694.7188,61.5625 Q1694.0313,60.4844 1694.0313,59.2031 L1694.0313,58.0469 Q1694.0313,56.7188 1694.6406,55.5781 Q1695.2656,54.4219 1696.3594,53.8125 Q1697.4531,53.1875 1698.6875,53.1875 Q1699.4219,53.1875 1700.0625,53.3594 Q1700.7188,53.5156 1701.2656,53.875 Z " fill="#000000"/>
        <text fill="#000000" font-family="sans-serif" font-size="12" lengthAdjust="spacing" textLength="47" x="1712.5" y="62.9102">ArrayList</text>
        <line style="stroke:#A80036;stroke-width:1.5;" x1="1684.5" x2="1761.5" y1="74" y2="74"/>
        <line style="stroke:#A80036;stroke-width:1.5;" x1="1684.5" x2="1761.5" y1="82" y2="82"/>
        <!--MD5=[ad1113bea5f3260a45b033927e40ca75]
link model.Department to model.DBModel-->
        <path codeLine="18" d="M1143,90.23 C1143,105.92 1143,127.1 1143,145.83 " fill="none" id="model.Department-to-model.DBModel" style="stroke:#A80036;stroke-width:1.0;"/>
        <polygon fill="none" points="1150,145.85,1143,165.85,1136,145.85,1150,145.85" style="stroke:#A80036;stroke-width:1.0;"/>
        <!--MD5=[4d11990cd38bf7c331ae320a2ae23d2b]
link model.Department to java.lang.Override-->
        <path codeLine="19" d="M1167.95,90.2 C1179.54,99.45 1194.04,109.06 1209,114 C1254.8,129.11 1597.88,104.97 1643,122 C1664.71,130.2 1684.61,147.16 1699.01,161.96 " fill="none" id="model.Department-to-java.lang.Override" style="stroke:#A80036;stroke-width:1.0;stroke-dasharray:7.0,7.0;"/>
        <polygon fill="#A80036" points="1702.55,165.67,1699.2387,156.3945,1699.1014,162.0497,1693.4462,161.9123,1702.55,165.67" style="stroke:#A80036;stroke-width:1.0;"/>
        <!--MD5=[9c9f8f4d0701733b4bd4dc3cc50e3cb5]
link model.EmpProj to model.DBModel-->
        <path codeLine="20" d="M1042.62,90.23 C1060.28,107.62 1084.81,131.75 1105.2,151.81 " fill="none" id="model.EmpProj-to-model.DBModel" style="stroke:#A80036;stroke-width:1.0;"/>
        <polygon fill="none" points="1110.13,146.84,1119.47,165.85,1100.31,156.82,1110.13,146.84" style="stroke:#A80036;stroke-width:1.0;"/>
        <!--MD5=[5fc4a527bcbe752deb6e9a33fecf5134]
link model.EmpProj to java.lang.Override-->
        <path codeLine="21" d="M1040.45,90.19 C1050.54,99.44 1063.35,109.06 1077,114 C1136.13,135.42 1584.11,99.92 1643,122 C1664.89,130.21 1684.92,147.35 1699.33,162.25 " fill="none" id="model.EmpProj-to-java.lang.Override" style="stroke:#A80036;stroke-width:1.0;stroke-dasharray:7.0,7.0;"/>
        <polygon fill="#A80036" points="1702.87,165.98,1699.577,156.698,1699.4285,162.3529,1693.7736,162.2044,1702.87,165.98" style="stroke:#A80036;stroke-width:1.0;"/>
        <!--MD5=[9395faac661c1223c4691fdff7a86bbe]
link model.Employee to model.DBModel-->
        <path codeLine="22" d="M926.84,90.16 C937.11,98.33 949.19,107.18 961,114 C999.7,136.35 1046.36,155.44 1082.75,168.76 " fill="none" id="model.Employee-to-model.DBModel" style="stroke:#A80036;stroke-width:1.0;"/>
        <polygon fill="none" points="1085.3,162.24,1101.79,175.56,1080.6,175.43,1085.3,162.24" style="stroke:#A80036;stroke-width:1.0;"/>
        <!--MD5=[45b97377ad011ffbd582154bfdac6dde]
link model.Employee to java.lang.Override-->
        <path codeLine="23" d="M922.76,90.22 C933.41,99.48 946.85,109.09 961,114 C996.8,126.43 1607.51,108.74 1643,122 C1664.9,130.18 1684.93,147.33 1699.34,162.23 " fill="none" id="model.Employee-to-java.lang.Override" style="stroke:#A80036;stroke-width:1.0;stroke-dasharray:7.0,7.0;"/>
        <polygon fill="#A80036" points="1702.88,165.96,1699.587,156.678,1699.4385,162.3329,1693.7836,162.1844,1702.88,165.96" style="stroke:#A80036;stroke-width:1.0;"/>
        <!--MD5=[b74c8133af8e3011f4a57a13ce726b20]
link model.ExtendedEmpProj to model.DBModel-->
        <path codeLine="24" d="M791.7,90.06 C805.98,98.51 822.84,107.57 839,114 C920.23,146.31 1019.37,167.62 1081.87,179.01 " fill="none" id="model.ExtendedEmpProj-to-model.DBModel" style="stroke:#A80036;stroke-width:1.0;"/>
        <polygon fill="none" points="1083.1,172.11,1101.58,182.49,1080.66,185.9,1083.1,172.11" style="stroke:#A80036;stroke-width:1.0;"/>
        <!--MD5=[79e86c9aeba92d56ca5fe754b0c97a39]
link model.ExtendedEmpProj to java.lang.Override-->
        <path codeLine="25" d="M787.85,90.06 C802.64,99.42 820.93,109.14 839,114 C882.14,125.6 1601.14,106.4 1643,122 C1664.9,130.16 1684.93,147.31 1699.34,162.21 " fill="none" id="model.ExtendedEmpProj-to-java.lang.Override" style="stroke:#A80036;stroke-width:1.0;stroke-dasharray:7.0,7.0;"/>
        <polygon fill="#A80036" points="1702.88,165.95,1699.587,156.668,1699.4385,162.3229,1693.7836,162.1744,1702.88,165.95" style="stroke:#A80036;stroke-width:1.0;"/>
        <!--MD5=[470a758a99b354ed3778a5fb7556c6d2]
link model.ExtendedEmployee to model.DBModel-->
        <path codeLine="26" d="M1520.51,90.14 C1505.54,98.6 1487.87,107.65 1471,114 C1381.1,147.85 1271.34,169.16 1204.35,180.07 " fill="none" id="model.ExtendedEmployee-to-model.DBModel" style="stroke:#A80036;stroke-width:1.0;"/>
        <polygon fill="none" points="1205.02,187.05,1184.17,183.25,1202.84,173.22,1205.02,187.05" style="stroke:#A80036;stroke-width:1.0;"/>
        <!--MD5=[378167d3be906c7e96e6a3f0e3bd0247]
link model.ExtendedEmployee to java.lang.Override-->
        <path codeLine="27" d="M1595.94,90.08 C1610.9,99.55 1628.04,110.89 1643,122 C1659.89,134.55 1677.84,149.62 1692.36,162.29 " fill="none" id="model.ExtendedEmployee-to-java.lang.Override" style="stroke:#A80036;stroke-width:1.0;stroke-dasharray:7.0,7.0;"/>
        <polygon fill="#A80036" points="1696.36,165.79,1692.2184,156.8543,1692.5962,162.4985,1686.952,162.8763,1696.36,165.79" style="stroke:#A80036;stroke-width:1.0;"/>
        <!--MD5=[e4a1ccb79eb46e769a609f9ba166c655]
link model.ExtendedProject to model.DBModel-->
        <path codeLine="28" d="M1357.06,90.01 C1344.02,97.99 1329.05,106.74 1315,114 C1278.47,132.87 1236.14,151.37 1202.62,165.27 " fill="none" id="model.ExtendedProject-to-model.DBModel" style="stroke:#A80036;stroke-width:1.0;"/>
        <polygon fill="none" points="1205.17,171.79,1184.01,172.89,1199.87,158.83,1205.17,171.79" style="stroke:#A80036;stroke-width:1.0;"/>
        <!--MD5=[a075f3350c1d11f41e2b12c3ac5dc756]
link model.ExtendedProject to java.lang.Override-->
        <path codeLine="29" d="M1423.62,90 C1437.62,99.22 1454.88,108.86 1472,114 C1508.43,124.94 1607.6,108.06 1643,122 C1664.6,130.5 1684.5,147.46 1698.92,162.19 " fill="none" id="model.ExtendedProject-to-java.lang.Override" style="stroke:#A80036;stroke-width:1.0;stroke-dasharray:7.0,7.0;"/>
        <polygon fill="#A80036" points="1702.47,165.88,1699.1022,156.6249,1698.9993,162.2808,1693.3434,162.1779,1702.47,165.88" style="stroke:#A80036;stroke-width:1.0;"/>
        <!--MD5=[f319c19585cb24f88013536e70453fa9]
link model.Project to model.DBModel-->
        <path codeLine="30" d="M1239.34,90.23 C1222.46,107.53 1199.07,131.51 1179.57,151.51 " fill="none" id="model.Project-to-model.DBModel" style="stroke:#A80036;stroke-width:1.0;"/>
        <polygon fill="none" points="1184.55,156.42,1165.58,165.85,1174.53,146.65,1184.55,156.42" style="stroke:#A80036;stroke-width:1.0;"/>
        <!--MD5=[455d154566eacb84227c103ca7dc09c0]
link model.Project to java.lang.Override-->
        <path codeLine="31" d="M1281.28,90.1 C1290.44,99.33 1302.18,108.96 1315,114 C1348.92,127.35 1608.93,109.03 1643,122 C1664.69,130.26 1684.59,147.22 1698.99,162.01 " fill="none" id="model.Project-to-java.lang.Override" style="stroke:#A80036;stroke-width:1.0;stroke-dasharray:7.0,7.0;"/>
        <polygon fill="#A80036" points="1702.53,165.72,1699.1996,156.4513,1699.0739,162.1068,1693.4184,161.9811,1702.53,165.72" style="stroke:#A80036;stroke-width:1.0;"/>
        <!--MD5=[6b62b11b68eff264d771bf8ded0c62a1]
link java.sql.Connection to java.sql.DriverManager-->
        <!--MD5=[88893a78d96c04ff1ac14969c9f51bac]
link java.sql.DriverManager to java.sql.PreparedStatement-->
        <!--MD5=[77080bd0cff22b4cb6a23025b2027700]
link java.sql.Connection to java.sql.ResultSet-->
        <!--MD5=[38e874fd3e086a6ed1b0a871e20757ee]
link java.sql.ResultSet to java.sql.SQLException-->
        <!--MD5=[8059659e8b37509cdf3b39cefa6644ae]
@startuml
abstract class model.DBModel
annotation java.lang.Override
class java.sql.Connection
class java.sql.DriverManager
class java.sql.PreparedStatement
class java.sql.ResultSet
class java.sql.SQLException
class java.util.ArrayList
class model.Department
class model.EmpProj
class model.Employee
class model.ExtendedEmpProj
class model.ExtendedEmployee
class model.ExtendedProject
class model.Project
interface model.DML
interface model.DQL
model.Department - -|> model.DBModel
model.Department ..> java.lang.Override
model.EmpProj - -|> model.DBModel
model.EmpProj ..> java.lang.Override
model.Employee - -|> model.DBModel
model.Employee ..> java.lang.Override
model.ExtendedEmpProj - -|> model.DBModel
model.ExtendedEmpProj ..> java.lang.Override
model.ExtendedEmployee - -|> model.DBModel
model.ExtendedEmployee ..> java.lang.Override
model.ExtendedProject - -|> model.DBModel
model.ExtendedProject ..> java.lang.Override
model.Project - -|> model.DBModel
model.Project ..> java.lang.Override
@enduml

PlantUML version 1.2021.3(Mon Mar 22 19:53:19 AST 2021)
(GPL source distribution)
Java Runtime: Java(TM) SE Runtime Environment
JVM: Java HotSpot(TM) 64-Bit Server VM
Default Encoding: UTF-8
Language: ar
Country: SY
-->
    </g>
</svg>
